<?xml version="1.0" encoding="utf-8"?>
<!-- Generator: Adobe Illustrator 16.0.2, SVG Export Plug-In . SVG Version: 6.00 Build 0)  -->
<!DOCTYPE svg PUBLIC "-//W3C//DTD SVG 1.1//EN" "http://www.w3.org/Graphics/SVG/1.1/DTD/svg11.dtd">
<svg version="1.1" xmlns="http://www.w3.org/2000/svg" xmlns:xlink="http://www.w3.org/1999/xlink" x="0px" y="0px"
	 width="108.502px" height="108.502px" viewBox="0 0 108.502 108.502" enable-background="new 0 0 108.502 108.502"
	 xml:space="preserve">
<g id="_x33_" display="none">
</g>
<g id="фоны">
</g>
<g id="Слой_1">
	<g>
		<circle fill="#CF0707" cx="54.251" cy="54.251" r="54.251"/>
	</g>
	<g>
		<g>
			<path fill-rule="evenodd" clip-rule="evenodd" fill="#FFFFFF" stroke="#CF0707" stroke-miterlimit="10" d="M52.911,20.751
				c1.911,1.859,3.825,3.719,5.732,5.582c0.567,0.555,1.1,1.146,1.687,1.679c0.314,0.284,0.244,0.464-0.017,0.702
				c-0.511,0.463-1.014,0.938-1.521,1.408c-0.503-0.451-1.024-0.889-1.505-1.361c-1.446-1.428-2.886-2.864-4.308-4.316
				c-0.35-0.358-0.56-0.396-0.941-0.008c-2.541,2.578-5.112,5.122-7.664,7.691c-0.564,0.566-0.561,0.599,0.005,1.17
				c1.674,1.691,3.366,3.366,5.04,5.057c0.61,0.613,0.613,0.645-0.023,1.266c-1.488,1.447-1.029,1.441-2.434,0.059
				c-1.836-1.811-3.657-3.637-5.471-5.467c-1.132-1.143-1.177-1.804-0.095-2.897c3.279-3.312,6.586-6.598,9.885-9.888
				c0.235-0.236,0.492-0.452,0.738-0.676C52.315,20.751,52.613,20.751,52.911,20.751z"/>
			<path fill-rule="evenodd" clip-rule="evenodd" fill="#FFFFFF" stroke="#CF0707" stroke-miterlimit="10" d="M87.751,56.483
				c-2.995,3.02-5.989,6.037-8.984,9.055c-0.559,0.563-1.101,1.145-1.688,1.679c-0.964,0.878-1.669,0.89-2.577-0.005
				c-2.121-2.085-4.207-4.207-6.323-6.298c-0.391-0.386-0.488-0.663-0.038-1.087c1.715-1.61,1.102-1.602,2.642-0.105
				c1.494,1.452,2.946,2.946,4.428,4.409c0.566,0.56,0.598,0.562,1.173-0.011c2.566-2.552,5.113-5.125,7.693-7.664
				c0.402-0.396,0.313-0.604-0.03-0.941c-1.731-1.706-3.445-3.428-5.159-5.151c-0.617-0.62-0.618-0.638-0.028-1.233
				c0.417-0.424,0.856-1.135,1.291-1.139c0.424-0.004,0.863,0.719,1.282,1.137c1.688,1.676,3.375,3.354,5.051,5.044
				c0.445,0.448,0.846,0.944,1.268,1.419C87.751,55.889,87.751,56.187,87.751,56.483z"/>
			<path fill-rule="evenodd" clip-rule="evenodd" fill="#FFFFFF" stroke="#CF0707" stroke-miterlimit="10" d="M20.751,68.692
				c0.124-0.143,0.235-0.303,0.374-0.432c0.842-0.787,1.837-0.561,2.196,0.521c0.105,0.319,0.095,0.68,0.122,1.023
				c0.521,6.658,3.837,11.357,9.931,14.066c1.768,0.785,3.644,1.203,5.598,1.188c0.147-0.002,0.298,0.002,0.442,0.029
				c1.291,0.25,1.664,1.281,0.823,2.282c-0.121,0.146-0.284,0.253-0.427,0.38c-0.794,0-1.588,0-2.382,0
				c-0.506-0.113-1.012-0.22-1.515-0.338C28.259,85.59,23.281,80.997,21.305,73.3c-0.189-0.741-0.37-1.482-0.554-2.225
				C20.751,70.281,20.751,69.487,20.751,68.692z"/>
			<path fill-rule="evenodd" clip-rule="evenodd" fill="#FFFFFF" stroke="#CF0707" stroke-miterlimit="10" d="M46.25,57.902
				c0.072-0.783-0.013-1.292,0.179-1.657c0.443-0.844,0.114-1.359-0.499-1.91c-0.739-0.66-1.415-1.391-2.113-2.094
				c-0.244-0.248-0.5-0.489-0.701-0.768c-0.534-0.748-0.479-1.326,0.177-1.974c0.933-0.923,2.138-1.203,3.376-1.35
				c0.588-0.069,1.19-0.019,1.783-0.051c0.279-0.015,0.304-0.226,0.149-0.396c-0.301-0.325-0.665-0.596-0.954-0.93
				c-0.704-0.816-0.712-1.406-0.062-2.252c0.15-0.195,0.328-0.371,0.503-0.546c5.05-5.052,10.1-10.104,15.153-15.15
				c0.705-0.705,1.484-1.271,2.469-1.579c1.619-0.51,3.018-0.129,4.299,0.879c0.349,0.275,0.652,0.609,0.967,0.924
				c2.843,2.84,5.684,5.68,8.523,8.523c0.281,0.28,0.567,0.557,0.824,0.858c1.308,1.528,1.607,3.569,0.419,5.499
				c-0.333,0.541-0.778,1.027-1.23,1.48c-4.937,4.954-9.886,9.897-14.831,14.842c-0.036,0.035-0.071,0.069-0.105,0.106
				c-1.101,1.165-1.993,1.62-3.407-0.102c-0.125-0.151-0.27-0.299-0.437-0.396c-0.065-0.036-0.308,0.063-0.313,0.113
				c-0.033,0.345-0.033,0.691-0.025,1.038c0.022,1.058-0.169,2.079-0.631,3.024c-0.233,0.477-0.562,0.933-0.936,1.311
				c-0.492,0.502-1,0.521-1.605,0.139c-0.331-0.209-0.628-0.479-0.91-0.753c-0.78-0.762-1.563-1.526-2.308-2.32
				c-0.446-0.478-0.827-0.63-1.539-0.419c-2.368,0.703-4.549-0.158-5.6-2.164C46.515,59.151,46.39,58.354,46.25,57.902z
				 M67.027,29.698c-0.729-0.021-1.229,0.367-1.695,0.834c-4.878,4.876-9.753,9.755-14.645,14.617
				c-0.375,0.372-0.351,0.564,0.011,0.925c3.908,3.882,7.804,7.776,11.683,11.685c0.408,0.412,0.631,0.398,1.03-0.004
				c4.793-4.82,9.579-9.648,14.423-14.417c1.215-1.196,1.298-2.595-0.062-3.827c-1.359-1.23-2.61-2.582-3.908-3.88
				c-1.685-1.687-3.371-3.366-5.052-5.055C68.31,30.069,67.772,29.653,67.027,29.698z M57.811,60.563
				c0.002,0.014-0.021-0.177-0.045-0.367c-0.063-0.487-0.06-0.996-0.202-1.461c-1.217-3.976-3.821-6.602-7.805-7.792
				c-0.933-0.277-1.935-0.339-2.918-0.12c-0.131,0.029-0.256,0.093-0.384,0.139c0.079,0.123,0.139,0.264,0.239,0.365
				c0.728,0.739,1.463,1.472,2.197,2.206c2.76,2.76,5.521,5.52,8.284,8.274c0.101,0.102,0.244,0.16,0.367,0.238
				c0.045-0.129,0.11-0.257,0.133-0.391C57.725,61.364,57.751,61.068,57.811,60.563z"/>
			<path fill-rule="evenodd" clip-rule="evenodd" fill="#FFFFFF" stroke="#CF0707" stroke-miterlimit="10" d="M39.083,77.86
				c-4.441-0.348-7.631-3.378-8.242-7.265c-0.062-0.388-0.176-0.774-0.191-1.164c-0.03-0.726,0.488-1.451,1.085-1.603
				c0.669-0.168,1.372,0.307,1.52,1.059c0.095,0.479,0.132,0.971,0.213,1.455c0.364,2.218,2.253,4.393,5.302,4.852
				c0.195,0.029,0.397,0.005,0.591,0.032c0.808,0.106,1.261,0.503,1.329,1.142c0.071,0.666-0.421,1.239-1.229,1.43
				C39.318,77.831,39.171,77.846,39.083,77.86z"/>
		</g>
	</g>
</g>
</svg>
