<?xml version="1.0" encoding="utf-8"?>
<!-- Generator: Adobe Illustrator 16.0.2, SVG Export Plug-In . SVG Version: 6.00 Build 0)  -->
<!DOCTYPE svg PUBLIC "-//W3C//DTD SVG 1.1//EN" "http://www.w3.org/Graphics/SVG/1.1/DTD/svg11.dtd">
<svg version="1.1" xmlns="http://www.w3.org/2000/svg" xmlns:xlink="http://www.w3.org/1999/xlink" x="0px" y="0px"
	 width="108.502px" height="108.502px" viewBox="0 0 108.502 108.502" enable-background="new 0 0 108.502 108.502"
	 xml:space="preserve">
<g id="_x33_" display="none">
</g>
<g id="фоны">
</g>
<g id="Слой_1">
	<g>
		<circle fill="#CF0707" cx="54.251" cy="54.251" r="54.251"/>
	</g>
	<path fill="#FFFFFF" d="M50.478,31.097v-8.031h-11.96v8.031H24.993v4.98h13.525V75.77h-5.405v8.362h-5.267v1.305h44.059v-1.305
		H55.88V75.77h-5.402V56.193c2.708-0.055,5.429-0.442,8.023-1.299c2.802-0.913,5.438-2.38,7.683-4.304
		c2.248-1.922,4.102-4.271,5.537-6.829c1.34-2.409,2.352-4.956,2.965-7.685h2.762v5.107h3.928v21.567l0.66,0.036
		c0.109,0.004,0.225,0.013,0.338,0.037l0.106,0.027c0.137,0.045,0.271,0.112,0.392,0.194c0.242,0.167,0.434,0.403,0.543,0.671
		c0.227,0.543,0.093,1.213-0.334,1.623c-0.414,0.419-1.086,0.55-1.628,0.318c-0.546-0.221-0.925-0.791-0.918-1.381h-1.308
		c-0.014,1.108,0.695,2.174,1.722,2.59c1.017,0.437,2.274,0.191,3.052-0.596c0.801-0.765,1.057-2.023,0.629-3.044
		c-0.207-0.513-0.564-0.952-1.02-1.263c-0.229-0.154-0.475-0.275-0.736-0.361l-0.19-0.049V41.185h3.931v-5.107h2.898v-4.98H50.478z
		 M39.827,24.377h9.342v3.171h-9.342V24.377z M39.827,28.859h9.342v0.435l-9.342,3.499V28.859z M39.827,34.192l9.342-3.5v4.665
		h-9.342V34.192z M39.827,36.665h9.342v0.432l-9.342,3.502V36.665z M39.827,41.999l9.342-3.503v4.082h-9.342V41.999z M39.827,43.89
		h9.342v0.431l-9.342,3.499V43.89z M39.827,49.219l9.342-3.499v4.418h-9.342V49.219z M39.827,51.45h9.342v0.43l-9.342,3.503V51.45z
		 M39.827,56.782l9.342-3.502v4.078h-9.342V56.782z M39.827,58.67h9.342v0.435l-9.342,3.502V58.67z M39.827,64.003l9.342-3.5v4.21
		h-9.342V64.003z M39.827,66.021h9.342v0.432l-9.342,3.502V66.021z M39.827,71.354l9.342-3.503v7.919h-9.342V71.354z M26.301,34.769
		v-2.361h12.217v2.361H26.301z M54.573,77.077v7.055h-20.15v-7.055H54.573z M50.478,36.077h21.244
		c-0.893,1.656-2.067,3.241-3.384,4.625c-1.57,1.645-3.383,3.06-5.363,4.176c-3.779,2.149-8.137,3.133-12.497,3.218V36.077z
		 M65.333,49.595c-2.116,1.813-4.591,3.188-7.24,4.055c-2.444,0.809-5.026,1.166-7.615,1.224v-5.472
		c4.544-0.08,9.14-1.108,13.142-3.381c2.094-1.182,4.008-2.675,5.667-4.414c1.551-1.647,2.886-3.447,3.909-5.529h0.141
		C72.09,41.21,69.358,46.142,65.333,49.595z M85.303,39.874h-6.546v-3.797h6.546V39.874z M88.203,34.769H50.478v-2.361h37.725
		V34.769z"/>
</g>
</svg>
