<?xml version="1.0" encoding="utf-8"?>
<!-- Generator: Adobe Illustrator 16.0.2, SVG Export Plug-In . SVG Version: 6.00 Build 0)  -->
<!DOCTYPE svg PUBLIC "-//W3C//DTD SVG 1.1//EN" "http://www.w3.org/Graphics/SVG/1.1/DTD/svg11.dtd">
<svg version="1.1" xmlns="http://www.w3.org/2000/svg" xmlns:xlink="http://www.w3.org/1999/xlink" x="0px" y="0px" width="155px"
	 height="155px" viewBox="0 0 155 155" enable-background="new 0 0 155 155" xml:space="preserve">
<g id="_x33_" display="none">
</g>
<g id="фоны">
</g>
<g id="Слой_1">
	<g>
		<circle fill="#149AED" cx="77.5" cy="77.5" r="77.5"/>
	</g>
	<g>
		<g>
			<path fill-rule="evenodd" clip-rule="evenodd" fill="#FFFFFF" stroke="#149AED" stroke-miterlimit="10" d="M77.392,121.747
				c-10.958,0-21.913,0.004-32.873-0.002c-5.822-0.003-8.456-2.738-8.518-8.526c-0.074-7.052,2.25-12.956,8.701-16.242
				c3.418-1.746,7.396-2.438,11.163-3.469c5.647-1.553,5.706-1.507,5.609-7.243c-0.019-0.985-0.322-2.127-0.884-2.913
				c-3.729-5.22-5.204-11.074-5.394-17.405c-0.064-2.291-0.759-4.555-1.068-6.844c-0.648-4.842-1.741-9.697-1.704-14.539
				c0.06-6.373,4.048-10.495,10.26-11.937c0.572-0.133,1.173-0.299,1.657-0.613c4.859-3.122,10.144-3.213,15.563-2.164
				c3.129,0.608,6.21,1.45,9.341,1.988c2.21,0.376,4.473,0.536,6.711,0.569c2.077,0.025,3.316,0.785,3.989,2.819
				c2.549,7.724,2.426,15.513,0.949,23.396c-0.504,2.72-0.928,5.488-0.976,8.242c-0.101,6.379-1.788,12.157-5.675,17.263
				c-0.668,0.88-1.195,6.596-0.479,7.287c0.676,0.645,1.661,1.063,2.583,1.326c4.012,1.149,8.149,1.934,12.063,3.352
				c6.608,2.387,9.809,7.551,10.521,14.379c0.104,0.984,0.056,1.992,0.063,2.99c0.033,5.445-2.715,8.268-8.129,8.275
				c-8.963,0.016-17.928,0-26.898-0.002c-2.191,0-4.383,0-6.575,0C77.392,121.741,77.392,121.742,77.392,121.747z M64.128,54.8
				c-2.857,7.495-3.614,14.821,0.075,22.104c2.353,4.634,5.795,8.118,10.998,9.3c5.818,1.317,12.249-2.418,15.547-8.356
				c2.967-5.344,2.778-11.078,2.691-16.843c-0.005-0.404-0.547-1.021-0.973-1.17C83.329,56.645,73.891,55.099,64.128,54.8z
				 M95.288,53.801c0.338-4.749,0.544-9.352-0.669-13.892c-0.114-0.417-0.712-0.912-1.164-1c-4.604-0.911-9.234-1.712-13.84-2.619
				c-4.612-0.916-9.075-1.143-13.108,1.927c-0.536,0.404-1.354,0.51-2.057,0.598c-2.893,0.357-4.818,1.724-5.394,4.479
				c-0.43,2.033-0.325,4.184-0.448,6.065c1.56-0.396,2.727-0.956,3.889-0.946c8.112,0.059,16.138,0.91,24,3.01
				C89.356,52.19,92.206,52.966,95.288,53.801z M74.312,115.339c0-2.27-0.077-4.316,0.033-6.358
				c0.056-1.111-0.381-1.669-1.291-2.173c-1.975-1.1-3.873-2.314-5.826-3.448c-2.462-1.425-4.831-3.652-7.438-3.995
				c-2.62-0.35-5.463,1.34-8.261,1.863c-6.944,1.299-9.491,6.344-9.133,12.404c0.067,1.135,0.303,1.723,1.555,1.719
				C53.974,115.331,64,115.339,74.312,115.339z M80.702,115.341c2.534,0,4.848,0,7.152,0c7.571-0.002,15.141,0.017,22.705-0.039
				c0.668-0.006,1.773-0.345,1.931-0.788c1.649-4.67-1.806-11.14-6.754-12.647c-3.103-0.951-6.27-1.695-9.429-2.438
				c-0.627-0.146-1.477-0.071-2.026,0.241c-4.206,2.392-8.386,4.848-12.519,7.362c-0.5,0.305-0.977,1.079-1.01,1.657
				C80.627,110.8,80.702,112.926,80.702,115.341z M86.788,90.616c-6.258,3.059-12.507,3.042-18.563-0.182
				c-0.488,1.727-0.942,3.354-1.45,5.148c3.319,2.004,6.706,4.065,10.122,6.07c0.324,0.194,0.956,0.202,1.282,0.01
				c3.428-1.979,6.829-4.017,10.178-6.008C87.829,93.944,87.343,92.392,86.788,90.616z"/>
		</g>
	</g>
</g>
</svg>
