<?xml version="1.0" encoding="utf-8"?>
<!-- Generator: Adobe Illustrator 16.0.2, SVG Export Plug-In . SVG Version: 6.00 Build 0)  -->
<!DOCTYPE svg PUBLIC "-//W3C//DTD SVG 1.1//EN" "http://www.w3.org/Graphics/SVG/1.1/DTD/svg11.dtd">
<svg version="1.1" xmlns="http://www.w3.org/2000/svg" xmlns:xlink="http://www.w3.org/1999/xlink" x="0px" y="0px" width="155px"
	 height="155px" viewBox="0 0 155 155" enable-background="new 0 0 155 155" xml:space="preserve">
<g id="_x33_" display="none">
</g>
<g id="фоны">
</g>
<g id="Слой_1">
	<g>
		<circle fill="#CF0707" cx="77.5" cy="77.5" r="77.5"/>
		<g>
			<path fill="none" stroke="#FFFFFF" stroke-width="2" stroke-linejoin="round" stroke-miterlimit="10" d="M123.11,64.845
				c0,14.947-12.114,27.061-27.057,27.061c-14.943,0-27.059-12.113-27.059-27.061c0-14.941,12.115-27.055,27.059-27.055
				C110.996,37.79,123.11,49.903,123.11,64.845z"/>
			<circle fill="none" stroke="#FFFFFF" stroke-width="2" stroke-miterlimit="10" cx="56.507" cy="81.497" r="6.244"/>
			<path fill="none" stroke="#FFFFFF" stroke-width="2" stroke-linejoin="round" stroke-miterlimit="10" d="M63.343,57.198
				l-3.221,5.938c-2.037-0.404-4.153-0.475-6.273-0.17l-2.904-6.086l-6.782,2.605l1.913,6.469c-1.777,1.191-3.301,2.656-4.546,4.324
				l-6.364-2.252l-2.955,6.639l5.936,3.219c-0.404,2.037-0.475,4.154-0.169,6.273l-6.087,2.906l2.605,6.781l6.467-1.916
				c1.191,1.779,2.66,3.303,4.323,4.549l-2.251,6.363l6.639,2.955l3.221-5.936c2.036,0.404,4.152,0.475,6.272,0.168l2.904,6.086
				l6.783-2.604l-1.915-6.469c1.777-1.191,3.303-2.656,4.547-4.322l6.363,2.25"/>
			<path fill="none" stroke="#FFFFFF" stroke-width="2" stroke-linejoin="round" stroke-miterlimit="10" d="M101.756,96.177
				c0.104,2.188-0.848,4.391-2.735,5.803c-3.023,2.258-7.301,1.641-9.558-1.379c-0.935-1.254-1.376-2.723-1.358-4.174"/>
			<path fill="none" stroke="#FFFFFF" stroke-width="2" stroke-linejoin="round" stroke-miterlimit="10" d="M80.659,101.913
				l-4.488,2.953l3.818,5.803l4.49-2.955c1.207,1.156,2.607,2.119,4.168,2.834l-1.083,5.26l6.804,1.402l1.083-5.262
				c1.718-0.041,3.384-0.369,4.948-0.951l2.957,4.49l5.802-3.818l-2.954-4.49c1.151-1.205,2.115-2.605,2.832-4.17l5.259,1.088
				l1.402-6.805l-5.258-1.082"/>
			<path fill="none" stroke="#FFFFFF" stroke-width="2" stroke-miterlimit="10" d="M106.46,77.335v-4.162
				c0-4.164-5.729-6.244-10.406-6.244c-4.68,0-10.408,2.08-10.408,6.244v4.162"/>
			<path fill="none" stroke="#FFFFFF" stroke-width="2" stroke-miterlimit="10" d="M96.054,66.929c3.752,0,6.242-2.795,6.242-6.244
				v-2.082c0-3.447-2.49-6.242-6.242-6.242c-3.756,0-6.245,2.795-6.245,6.242v2.082C89.809,64.134,92.298,66.929,96.054,66.929z"/>
		</g>
	</g>
</g>
</svg>
