<?xml version="1.0" encoding="utf-8"?>
<!-- Generator: Adobe Illustrator 16.0.2, SVG Export Plug-In . SVG Version: 6.00 Build 0)  -->
<!DOCTYPE svg PUBLIC "-//W3C//DTD SVG 1.1//EN" "http://www.w3.org/Graphics/SVG/1.1/DTD/svg11.dtd">
<svg version="1.1" xmlns="http://www.w3.org/2000/svg" xmlns:xlink="http://www.w3.org/1999/xlink" x="0px" y="0px"
	 width="108.502px" height="108.502px" viewBox="0 0 108.502 108.502" enable-background="new 0 0 108.502 108.502"
	 xml:space="preserve">
<g id="_x33_" display="none">
</g>
<g id="фоны">
</g>
<g id="Слой_1">
	<g>
		<circle fill="#CF0707" cx="54.251" cy="54.251" r="54.251"/>
	</g>
	<g>
		<polygon fill="#FFFFFF" points="50.958,56.198 55.925,56.198 55.925,54.999 49.764,54.999 49.764,57.19 50.958,57.19 		"/>
		<path fill="#FFFFFF" d="M27.798,71.442c-0.637-0.002-1.274,0.264-1.724,0.716c-0.451,0.446-0.716,1.085-0.712,1.723
			c-0.004,0.638,0.261,1.273,0.713,1.723c0.449,0.454,1.086,0.718,1.725,0.713c0.637,0.005,1.275-0.259,1.723-0.713
			c0.453-0.449,0.715-1.085,0.715-1.723s-0.262-1.276-0.715-1.726C29.074,71.704,28.437,71.44,27.798,71.442z M27.798,75.12
			c-0.66,0.02-1.256-0.576-1.238-1.239c-0.018-0.663,0.578-1.257,1.238-1.239c0.664-0.018,1.26,0.576,1.242,1.239
			C29.058,74.544,28.462,75.138,27.798,75.12z"/>
		<path fill="#FFFFFF" d="M68.628,71.442c-0.639-0.002-1.275,0.264-1.725,0.716c-0.452,0.446-0.717,1.082-0.715,1.723
			c-0.002,0.638,0.263,1.273,0.715,1.723c0.447,0.454,1.086,0.718,1.723,0.713c0.639,0.005,1.275-0.259,1.724-0.713
			c0.454-0.449,0.72-1.085,0.714-1.723c0.006-0.638-0.26-1.272-0.714-1.723C69.902,71.706,69.265,71.44,68.628,71.442z
			 M68.626,75.12c-0.658,0.018-1.26-0.576-1.24-1.239c-0.018-0.663,0.582-1.257,1.242-1.239c0.66-0.018,1.258,0.576,1.24,1.239
			C69.886,74.544,69.289,75.14,68.626,75.12z"/>
		<path fill="#FFFFFF" d="M93.876,78.497l-8.947-7.01h-9.412V57.776h-1.196v4.752l-5.946,6.778c-0.078,0-0.157,0-0.229,0.003h-0.76
			v-7.156h-7.684V48.872l-4.676-13.48h-4.068v-3.695v-2.149c0.004-0.341-0.004-0.749,0.007-1.04c0.022-0.41-0.001-0.799-0.063-1.198
			c-0.125-0.782-0.435-1.606-1.053-2.239c-0.615-0.641-1.484-0.965-2.284-1.039c-0.202-0.025-0.403-0.023-0.6-0.031H46.43h-1.075
			h-2.148v1.195h2.148h1.042v10.197H27.204v1.197h2.687v18.41h-3.285v14.355c-0.256,0.033-0.512,0.077-0.748,0.154
			c-0.621,0.191-1.194,0.52-1.682,0.943c-0.972,0.85-1.553,2.137-1.546,3.429c-0.007,1.296,0.574,2.583,1.548,3.429
			c0.485,0.43,1.06,0.752,1.68,0.943c0.602,0.202,1.322,0.213,1.844,0.199h6.741h13.48h13.482h6.741
			c0.521,0.014,1.243,0.003,1.847-0.199c0.617-0.191,1.192-0.517,1.677-0.943c0.824-0.719,1.359-1.748,1.504-2.83h1.147v4.018
			H93.876z M75.517,72.686h8.998l5.893,4.612H75.517V72.686z M47.593,25.247c0.554,0.08,1.045,0.291,1.4,0.658
			c0.389,0.394,0.628,0.971,0.727,1.592c0.04,0.244,0.051,0.496,0.051,0.74h-2.178V25.247z M47.593,29.437h2.17
			c0,0.038,0.001,0.071,0.001,0.11v2.149v3.695h-2.171V29.437z M42.215,36.589h11.96l4.332,12.486v2.482H42.215V36.589z
			 M31.085,36.589h9.934v16.164h17.488v9.4H48.3l-3.392-7.154H31.085V36.589z M27.8,56.198h16.352l3.393,7.153h18.645v5.958h-4.785
			H47.922h-13.48H27.8V56.198z M70.876,76.411c-0.357,0.318-0.783,0.557-1.239,0.695c-0.472,0.15-0.89,0.161-1.491,0.15h-6.741
			H47.922h-13.48h-6.741c-0.6,0.011-1.019,0-1.493-0.15c-0.454-0.139-0.88-0.377-1.237-0.695c-0.723-0.631-1.148-1.573-1.146-2.53
			c-0.003-0.957,0.422-1.903,1.146-2.53c0.357-0.315,0.781-0.557,1.237-0.693c0.475-0.152,0.892-0.16,1.493-0.152h6.741h13.48
			h13.481h6.742c0.602-0.008,1.02,0,1.491,0.152c0.456,0.137,0.882,0.378,1.239,0.693c0.724,0.627,1.149,1.573,1.145,2.53
			C72.026,74.838,71.6,75.78,70.876,76.411z M73.173,73.282c-0.145-1.082-0.68-2.111-1.504-2.832
			c-0.486-0.425-1.06-0.75-1.682-0.941c-0.048-0.02-0.109-0.024-0.163-0.041l4.496-5.126v8.94H73.173z"/>
	</g>
</g>
</svg>
