<?xml version="1.0" encoding="utf-8"?>
<!-- Generator: Adobe Illustrator 16.0.2, SVG Export Plug-In . SVG Version: 6.00 Build 0)  -->
<!DOCTYPE svg PUBLIC "-//W3C//DTD SVG 1.1//EN" "http://www.w3.org/Graphics/SVG/1.1/DTD/svg11.dtd">
<svg version="1.1" xmlns="http://www.w3.org/2000/svg" xmlns:xlink="http://www.w3.org/1999/xlink" x="0px" y="0px"
	 width="108.502px" height="108.502px" viewBox="0 0 108.502 108.502" enable-background="new 0 0 108.502 108.502"
	 xml:space="preserve">
<g id="_x33_" display="none">
</g>
<g id="фоны">
</g>
<g id="Слой_1">
	<g>
		<circle fill="#CF0707" cx="54.251" cy="54.251" r="54.251"/>
	</g>
	<g>
		<path fill="#FFFFFF" d="M77.332,72.875c-0.018-0.309-0.046-0.617-0.087-0.928l-0.034-0.234l-0.06-0.311
			c-0.133-0.322-0.222-0.389-0.294-0.518l-0.948-1.492l-1.9-2.973l-3.804-5.951L62.7,48.715V30.666h3.64v-1.238H42.16v1.238h3.642
			v18.049l-7.506,11.754l-3.8,5.951l-1.9,2.973l-0.951,1.492l-0.119,0.184c-0.008,0.037-0.163,0.203-0.175,0.334l-0.058,0.311
			l-0.034,0.234c-0.046,0.311-0.071,0.619-0.089,0.928c-0.135,2.447,0.491,5.098,2.242,7.006c1.736,1.924,4.248,2.805,6.635,3.137
			c1.204,0.176,2.438,0.207,3.61,0.199h3.534h7.063h7.061h3.53c1.173,0.008,2.408-0.023,3.61-0.199
			c2.389-0.332,4.898-1.213,6.635-3.137C76.839,77.973,77.469,75.322,77.332,72.875z M74.172,79.049
			c-1.458,1.621-3.662,2.432-5.89,2.744c-1.134,0.158-2.258,0.191-3.438,0.18h-3.53h-7.061h-7.063h-3.534
			c-1.181,0.012-2.305-0.021-3.435-0.18c-2.231-0.313-4.434-1.123-5.891-2.744c-1.475-1.6-2.044-3.891-1.923-6.105
			c0.014-0.279,0.04-0.559,0.077-0.828l0.049-0.326l0.155-0.238l0.949-1.488l1.902-2.977l3.801-5.949l7.701-12.057V30.666h14.416
			V49.08l7.702,12.057l3.801,5.949l1.899,2.977l0.952,1.488l0.152,0.238l0.052,0.326c0.035,0.27,0.061,0.549,0.075,0.828
			C76.213,75.158,75.644,77.449,74.172,79.049z"/>
		<path fill="#FFFFFF" d="M72.457,71.006l-0.038-0.242c-0.017-0.047-0.025-0.271-0.1-0.379l-1.01-1.58l-2.113-3.309h-6.781H39.305
			l-2.114,3.309l-1.005,1.58c-0.075,0.107-0.087,0.332-0.101,0.379l-0.04,0.242c-0.021,0.16-0.035,0.32-0.046,0.479
			c-0.027,0.318-0.032,0.639-0.027,0.961c0.032,1.27,0.317,2.576,0.975,3.723c0.65,1.156,1.682,2.082,2.833,2.664
			c2.325,1.197,4.967,1.174,7.302,1.145h7.172h7.17c2.328,0.029,4.976,0.053,7.296-1.145c1.149-0.582,2.185-1.508,2.834-2.664
			c0.658-1.146,0.946-2.453,0.975-3.723c0.009-0.322,0-0.643-0.026-0.961C72.49,71.326,72.476,71.166,72.457,71.006z M70.475,75.553
			c-0.526,0.938-1.349,1.678-2.323,2.176c-0.977,0.5-2.086,0.773-3.219,0.906c-1.127,0.137-2.306,0.092-3.51,0.102h-7.17h-7.172
			c-1.208-0.01-2.387,0.035-3.511-0.102c-1.135-0.133-2.242-0.406-3.223-0.906c-0.975-0.498-1.797-1.238-2.323-2.176
			c-0.534-0.932-0.787-2.029-0.813-3.143c-0.006-0.275,0-0.555,0.022-0.834l0.043-0.41l0.038-0.254l0.923-1.439l1.744-2.736h22.432
			h6.103l1.749,2.736l0.919,1.439l0.038,0.254l0.046,0.41c0.02,0.279,0.025,0.559,0.02,0.834
			C71.263,73.523,71.01,74.621,70.475,75.553z"/>
		<rect x="48.467" y="32.902" fill="#FFFFFF" width="1.238" height="9.613"/>
		<rect x="48.467" y="43.375" fill="#FFFFFF" width="1.238" height="1.631"/>
		<path fill="#FFFFFF" d="M61.305,29.191c1.093,0.029,2.078-0.951,2.047-2.049c0.031-1.092-0.952-2.076-2.047-2.047
			c-1.095-0.029-2.079,0.955-2.05,2.047C59.226,28.238,60.21,29.219,61.305,29.191z M61.305,26.334
			c0.432-0.012,0.819,0.379,0.808,0.809c0.012,0.434-0.376,0.818-0.808,0.807c-0.432,0.012-0.819-0.377-0.811-0.807
			C60.486,26.713,60.874,26.322,61.305,26.334z"/>
		<path fill="#FFFFFF" d="M67.541,27.764c0.848,0.002,1.695-0.348,2.294-0.949c0.601-0.596,0.951-1.443,0.951-2.293
			c0-0.846-0.348-1.693-0.948-2.291c-0.598-0.605-1.446-0.955-2.295-0.949c-0.85-0.006-1.698,0.344-2.293,0.949
			c-0.604,0.594-0.955,1.441-0.949,2.291c-0.006,0.848,0.346,1.695,0.946,2.293C65.844,27.416,66.693,27.766,67.541,27.764z
			 M67.542,22.52c1.067-0.029,2.03,0.932,2.001,2.002c0.029,1.072-0.934,2.031-2.001,2.002c-1.072,0.027-2.035-0.93-2.003-2.002
			C65.511,23.451,66.47,22.49,67.542,22.52z"/>
		<path fill="#FFFFFF" d="M49.087,62.084c1.096,0.027,2.076-0.953,2.047-2.047c0.029-1.098-0.951-2.08-2.047-2.049
			c-1.095-0.029-2.075,0.949-2.05,2.047C47.012,61.131,47.993,62.111,49.087,62.084z M49.087,59.23
			c0.431-0.018,0.819,0.371,0.808,0.807c0.012,0.428-0.377,0.814-0.808,0.805c-0.432,0.01-0.822-0.377-0.811-0.805
			C48.265,59.604,48.656,59.213,49.087,59.23z"/>
		<path fill="#FFFFFF" d="M55.972,67.369c-1.061-0.006-2.121,0.43-2.863,1.184c-0.756,0.75-1.192,1.805-1.188,2.865
			c-0.005,1.063,0.432,2.119,1.188,2.867c0.742,0.752,1.803,1.193,2.86,1.188c1.064,0.006,2.121-0.436,2.869-1.188
			c0.751-0.748,1.193-1.805,1.185-2.867c0.009-1.061-0.432-2.115-1.185-2.863C58.09,67.799,57.034,67.363,55.972,67.369z
			 M57.958,73.406c-0.52,0.527-1.248,0.826-1.986,0.824c-0.738,0.002-1.469-0.299-1.989-0.824c-0.522-0.52-0.824-1.25-0.822-1.988
			c-0.002-0.738,0.3-1.465,0.822-1.986c0.521-0.525,1.251-0.826,1.989-0.824c0.738-0.002,1.467,0.301,1.986,0.824
			c0.526,0.521,0.828,1.248,0.825,1.986C58.787,72.156,58.485,72.887,57.958,73.406z"/>
		<path fill="#FFFFFF" d="M55.969,59.227c0.886,0.004,1.766-0.359,2.389-0.984c0.628-0.625,0.992-1.506,0.986-2.387
			c0.006-0.883-0.358-1.766-0.986-2.387c-0.621-0.627-1.503-0.992-2.386-0.988c-0.882-0.004-1.762,0.361-2.386,0.988
			c-0.627,0.621-0.991,1.5-0.989,2.387c-0.002,0.879,0.362,1.762,0.989,2.387C54.208,58.867,55.09,59.23,55.969,59.227z
			 M55.972,53.719c1.142-0.029,2.165,0.994,2.134,2.137c0.031,1.137-0.992,2.162-2.134,2.133c-1.142,0.029-2.164-0.996-2.133-2.133
			C53.808,54.711,54.831,53.693,55.972,53.719z"/>
		<path fill="#FFFFFF" d="M57.787,61.461c-0.032,1.119,0.971,2.121,2.09,2.09c1.118,0.035,2.119-0.969,2.09-2.09
			c0.029-1.115-0.972-2.119-2.087-2.09C58.757,59.342,57.754,60.346,57.787,61.461z M59.876,60.609
			c0.454-0.012,0.862,0.4,0.851,0.852c0.012,0.457-0.396,0.865-0.851,0.852c-0.454,0.014-0.865-0.398-0.852-0.852
			C59.011,61.006,59.424,60.598,59.876,60.609z"/>
		<path fill="#FFFFFF" d="M47.659,67.369c-1.118-0.029-2.122,0.971-2.093,2.09c-0.029,1.117,0.975,2.117,2.09,2.092
			c1.118,0.029,2.124-0.971,2.093-2.092C49.78,68.34,48.777,67.34,47.659,67.369z M47.659,70.309
			c-0.454,0.016-0.865-0.396-0.851-0.85c-0.015-0.455,0.396-0.863,0.851-0.852c0.454-0.012,0.862,0.398,0.851,0.852
			C48.521,69.912,48.113,70.324,47.659,70.309z"/>
	</g>
</g>
</svg>
