<?xml version="1.0" encoding="utf-8"?>
<!-- Generator: Adobe Illustrator 16.0.2, SVG Export Plug-In . SVG Version: 6.00 Build 0)  -->
<!DOCTYPE svg PUBLIC "-//W3C//DTD SVG 1.1//EN" "http://www.w3.org/Graphics/SVG/1.1/DTD/svg11.dtd">
<svg version="1.1" xmlns="http://www.w3.org/2000/svg" xmlns:xlink="http://www.w3.org/1999/xlink" x="0px" y="0px" width="155px"
	 height="155px" viewBox="0 0 155 155" enable-background="new 0 0 155 155" xml:space="preserve">
<g id="_x33_" display="none">
</g>
<g id="фоны">
</g>
<g id="Слой_1">
	<g>
		<g>
			<circle fill="#CF0707" cx="77.5" cy="77.5" r="77.5"/>
		</g>
		<g>
			<path fill="none" stroke="#FFFFFF" stroke-width="2" stroke-miterlimit="10" d="M75.418,61.89c4.766,0,8.325-3.992,8.325-8.919
				v-2.976c0-4.925-3.56-8.918-8.325-8.918c-4.767,0-8.326,3.993-8.326,8.918v2.976C67.092,57.897,70.652,61.89,75.418,61.89z"/>
			<path fill="none" stroke="#FFFFFF" stroke-width="2" stroke-miterlimit="10" d="M92.069,76.46v-6.33
				c0-5.74-10.427-8.325-15.609-8.325c-5.185,0-15.611,2.585-15.611,8.325v6.33"/>
			<path fill="none" stroke="#FFFFFF" stroke-width="2" stroke-miterlimit="10" d="M77.5,99.354c4.766,0,8.324-3.991,8.324-8.918
				V87.46c0-4.925-3.559-8.919-8.324-8.919c-4.767,0-8.326,3.994-8.326,8.919v2.977C69.174,95.363,72.734,99.354,77.5,99.354z"/>
			<path fill="none" stroke="#FFFFFF" stroke-width="2" stroke-miterlimit="10" d="M94.15,113.923v-6.329
				c0-5.739-10.427-8.325-15.609-8.325c-5.185,0-15.61,2.586-15.61,8.325v6.329"/>
			<path fill="none" stroke="#FFFFFF" stroke-width="2" stroke-miterlimit="10" d="M108.719,80.623c4.767,0,8.326-3.993,8.326-8.919
				v-2.977c0-4.925-3.56-8.918-8.326-8.918c-4.766,0-8.324,3.993-8.324,8.918v2.977C100.395,76.63,103.954,80.623,108.719,80.623z"
				/>
			<path fill="none" stroke="#FFFFFF" stroke-width="2" stroke-miterlimit="10" d="M125.371,95.19v-6.33
				c0-5.737-10.427-8.324-15.61-8.324s-15.61,2.587-15.61,8.324v6.33"/>
			<path fill="none" stroke="#FFFFFF" stroke-width="2" stroke-miterlimit="10" d="M44.198,80.623c4.768,0,8.326-3.993,8.326-8.919
				v-2.977c0-4.925-3.559-8.918-8.326-8.918c-4.766,0-8.325,3.993-8.325,8.918v2.977C35.873,76.63,39.432,80.623,44.198,80.623z"/>
			<path fill="none" stroke="#FFFFFF" stroke-width="2" stroke-miterlimit="10" d="M60.848,95.19v-6.33
				c0-5.737-10.426-8.324-15.609-8.324s-15.609,2.587-15.609,8.324v6.33"/>
		</g>
	</g>
</g>
</svg>
