<?xml version="1.0" encoding="utf-8"?>
<!-- Generator: Adobe Illustrator 16.0.2, SVG Export Plug-In . SVG Version: 6.00 Build 0)  -->
<!DOCTYPE svg PUBLIC "-//W3C//DTD SVG 1.1//EN" "http://www.w3.org/Graphics/SVG/1.1/DTD/svg11.dtd">
<svg version="1.1" xmlns="http://www.w3.org/2000/svg" xmlns:xlink="http://www.w3.org/1999/xlink" x="0px" y="0px"
	 width="108.502px" height="108.502px" viewBox="0 0 108.502 108.502" enable-background="new 0 0 108.502 108.502"
	 xml:space="preserve">
<g id="_x33_" display="none">
</g>
<g id="фоны">
</g>
<g id="Слой_1">
	<g>
		<circle fill="#CF0707" cx="54.251" cy="54.251" r="54.251"/>
	</g>
	<g>
		<path fill="#FFFFFF" d="M80.263,66.146h1.271h1.136c0.417,0.006,0.85-0.039,1.265-0.131c0.84-0.186,1.627-0.561,2.299-1.096
			c1.351-1.049,2.168-2.742,2.158-4.457c0.01-1.711-0.811-3.404-2.162-4.457c-0.668-0.531-1.457-0.906-2.295-1.092
			c-0.415-0.092-0.85-0.137-1.265-0.135h-1.14h-9.094H54.25H36.066h-0.432l5.436-16.125l2.865-8.486l0.361-1.061
			c0.134-0.385,0.229-0.826,0.259-1.256c0.021-0.293,0.003-0.588-0.032-0.879h2.302v2.355h12.604v1.309
			c-1.448,0.205-2.784,1.143-3.44,2.459c-0.791,1.5-0.627,3.424,0.379,4.781l1.04-0.758c-0.725-0.979-0.841-2.359-0.274-3.438
			c0.543-1.09,1.724-1.816,2.943-1.803c1.213-0.014,2.395,0.713,2.938,1.803c0.566,1.078,0.449,2.459-0.275,3.438l1.041,0.758
			c1.005-1.357,1.166-3.281,0.379-4.781c-0.653-1.316-1.988-2.254-3.441-2.459v-1.309h2.681v-6.004H46.825v2.359h-2.647
			c-0.049-0.113-0.09-0.23-0.146-0.338c-0.787-1.553-2.496-2.566-4.229-2.531c-1.738,0.006-3.42,1.063-4.168,2.633
			c-0.099,0.191-0.176,0.4-0.248,0.594l-0.176,0.533l-0.357,1.059l-0.716,2.121l-2.866,8.488l-5.575,16.543
			c-0.372,0.01-0.761,0.049-1.127,0.129c-0.838,0.186-1.628,0.561-2.3,1.094c-1.348,1.051-2.17,2.746-2.158,4.459
			c-0.012,1.711,0.811,3.404,2.162,4.457c0.668,0.531,1.461,0.906,2.299,1.092c0.414,0.092,0.847,0.137,1.264,0.131h1.137h1.27
			v16.254h-7.486v1.287h66.99v-1.287h-7.483V66.146z M48.11,26.001v-1.389h14.002v3.426H48.11V26.001z M32.492,38.653l2.861-8.486
			l0.719-2.123l0.355-1.061l0.182-0.531c0.054-0.156,0.107-0.299,0.18-0.439c0.542-1.139,1.768-1.908,3.029-1.91
			c1.261-0.027,2.504,0.709,3.07,1.84c0.293,0.557,0.427,1.191,0.383,1.818c-0.024,0.318-0.084,0.611-0.197,0.934l-0.355,1.059
			l-2.865,8.488l-5.578,16.537h-7.223L32.492,38.653z M26.973,64.86h-1.137c-0.342,0.002-0.664-0.033-0.99-0.105
			c-0.644-0.143-1.258-0.428-1.773-0.84c-1.05-0.816-1.682-2.123-1.673-3.449c-0.009-1.33,0.623-2.633,1.67-3.451
			c0.519-0.41,1.133-0.701,1.774-0.844c0.328-0.07,0.65-0.107,0.992-0.104h1.137h9.094H54.25h18.186h9.094h1.14
			c0.34-0.004,0.662,0.033,0.989,0.104c0.645,0.141,1.256,0.43,1.771,0.844c1.05,0.814,1.682,2.121,1.676,3.447
			c0.006,1.33-0.626,2.633-1.672,3.449c-0.52,0.416-1.131,0.701-1.775,0.844c-0.327,0.072-0.649,0.107-0.989,0.105h-1.136h-9.095
			H54.252H36.066H26.973z M78.978,82.399h-49.45V66.146h6.539h18.186h18.187h6.539V82.399z"/>
		<path fill="#FFFFFF" d="M45.704,45.843v8.688h8.603v-8.688h-1.121l-0.791-3.029h0.057c0.146-0.01,0.293-0.027,0.427-0.082
			c0.561-0.178,0.954-0.736,0.951-1.322c-0.006-0.176,0.021-0.254-0.026-0.6c-0.061-0.283-0.209-0.549-0.421-0.748
			c-0.206-0.201-0.485-0.326-0.772-0.365c-0.065-0.008-0.16-0.014-0.203-0.014h-0.115h-0.238h-1.889h-1.887h-0.471h-0.251
			c-0.146,0.008-0.29,0.025-0.423,0.08c-0.561,0.176-0.958,0.742-0.955,1.324c0.006,0.178-0.021,0.25,0.03,0.6
			c0.06,0.283,0.208,0.549,0.417,0.748c0.206,0.203,0.489,0.324,0.775,0.363c0.066,0.006,0.155,0.016,0.199,0.016h0.013
			l-0.787,3.029H45.704z M47.6,41.528c-0.032,0-0.018-0.006-0.029-0.006c-0.023-0.006-0.047-0.006-0.065-0.027
			c-0.038-0.061-0.045,0.023-0.038-0.406c0.006-0.051,0.032-0.098,0.08-0.109c0.009-0.01,0.023-0.004,0.035-0.01h0.225h0.471h1.887
			h1.889h0.238h0.115c0.037,0,0.021,0.004,0.037,0.004c0.02,0.006,0.047,0.006,0.063,0.029c0.035,0.061,0.044-0.027,0.038,0.406
			c-0.006,0.047-0.032,0.094-0.081,0.107c-0.012,0.008-0.023,0.002-0.035,0.008l-0.224,0.004h-0.472h-1.887h-1.891H47.72H47.6z
			 M51.855,45.843h-1.852h-1.85l0.787-3.029h0.904h1.223L51.855,45.843z M46.989,47.13h3.015h3.018v6.113h-6.032V47.13z"/>
		<path fill="#FFFFFF" d="M55.773,45.843v8.688h8.602v-8.688h-1.123l-0.787-3.029h0.059c0.144-0.01,0.287-0.027,0.424-0.082
			c0.561-0.178,0.954-0.738,0.954-1.322c-0.009-0.176,0.019-0.254-0.03-0.6c-0.063-0.283-0.208-0.549-0.42-0.748
			c-0.205-0.201-0.486-0.326-0.771-0.365c-0.066-0.008-0.162-0.014-0.203-0.014h-0.119h-0.236h-1.885h-1.89h-0.472h-0.25
			c-0.143,0.008-0.289,0.025-0.424,0.08c-0.561,0.176-0.953,0.742-0.951,1.324c0.006,0.178-0.021,0.25,0.024,0.6
			c0.063,0.283,0.208,0.549,0.417,0.748c0.209,0.203,0.492,0.324,0.778,0.363c0.065,0.006,0.158,0.016,0.203,0.016h0.009
			l-0.784,3.029H55.773z M57.673,41.528c-0.039,0-0.024-0.006-0.036-0.006c-0.023-0.006-0.047-0.006-0.063-0.027
			c-0.039-0.061-0.045,0.023-0.041-0.406c0.008-0.051,0.032-0.098,0.083-0.109c0.009-0.01,0.021-0.004,0.032-0.01h0.227h0.472h1.89
			h1.885h0.236h0.119c0.035,0,0.021,0.004,0.035,0.004c0.021,0.006,0.045,0.006,0.061,0.029c0.038,0.061,0.045-0.027,0.041,0.406
			c-0.003,0.047-0.033,0.094-0.08,0.107c-0.01,0.008-0.021,0.002-0.036,0.008l-0.224,0.004h-0.475h-1.887h-1.888h-0.235H57.673z
			 M61.925,45.843h-1.849h-1.852l0.783-3.029h0.904h1.226L61.925,45.843z M57.059,47.13h3.018h3.012v6.113h-6.029V47.13z"/>
		<path fill="#FFFFFF" d="M74.576,45.843h-1.121l-0.79-3.029h0.057c0.146-0.01,0.289-0.027,0.429-0.082
			c0.559-0.178,0.951-0.738,0.949-1.322c-0.006-0.176,0.021-0.254-0.027-0.6c-0.06-0.283-0.209-0.549-0.418-0.748
			c-0.208-0.201-0.488-0.326-0.777-0.365c-0.066-0.008-0.158-0.014-0.2-0.014h-0.116h-0.235h-1.891h-1.888h-0.471h-0.25
			c-0.146,0.008-0.289,0.025-0.43,0.08c-0.558,0.176-0.951,0.742-0.948,1.324c0.009,0.178-0.019,0.25,0.03,0.6
			c0.057,0.283,0.208,0.549,0.417,0.748c0.208,0.203,0.489,0.324,0.774,0.363c0.066,0.006,0.158,0.016,0.2,0.016h0.013l-0.787,3.029
			h-1.121v8.688h8.602V45.843z M67.87,41.528c-0.032,0-0.021-0.006-0.03-0.006c-0.023-0.006-0.05-0.006-0.068-0.027
			c-0.035-0.061-0.041,0.023-0.035-0.406c0.006-0.051,0.033-0.098,0.08-0.109c0.01-0.01,0.023-0.004,0.036-0.01h0.224h0.471h1.888
			h1.891h0.235h0.116c0.036,0,0.021,0.004,0.033,0.004c0.023,0.006,0.048,0.006,0.065,0.029c0.035,0.061,0.041-0.027,0.039,0.406
			c-0.006,0.047-0.03,0.094-0.081,0.107c-0.012,0.008-0.023,0.002-0.036,0.008l-0.223,0.004h-0.472h-1.888h-1.891H67.99H67.87z
			 M72.125,45.843h-1.852h-1.849l0.787-3.029h0.903h1.223L72.125,45.843z M73.288,53.243H67.26V47.13h3.014h3.015V53.243z"/>
		<path fill="#FFFFFF" d="M84.646,45.843h-1.125l-0.784-3.029h0.054c0.146-0.01,0.289-0.027,0.426-0.082
			c0.562-0.178,0.955-0.736,0.951-1.322c-0.006-0.176,0.021-0.254-0.026-0.6c-0.063-0.283-0.208-0.549-0.417-0.748
			c-0.212-0.201-0.492-0.326-0.775-0.365c-0.065-0.008-0.161-0.014-0.203-0.014h-0.119h-0.235h-1.888h-1.891h-0.468h-0.251
			c-0.143,0.008-0.285,0.025-0.426,0.08c-0.561,0.176-0.954,0.742-0.951,1.324c0.006,0.178-0.021,0.25,0.027,0.6
			c0.063,0.283,0.208,0.549,0.417,0.748c0.208,0.203,0.491,0.324,0.778,0.363c0.065,0.006,0.158,0.016,0.203,0.016h0.008
			l-0.787,3.029h-1.121v8.688h8.604V45.843z M77.943,41.528c-0.039,0-0.024-0.006-0.036-0.006c-0.021-0.006-0.048-0.006-0.063-0.027
			c-0.038-0.061-0.047,0.023-0.041-0.406c0.009-0.051,0.033-0.098,0.084-0.109c0.008-0.01,0.023-0.004,0.032-0.01h0.227h0.468h1.891
			h1.888h0.235h0.119c0.036,0,0.021,0.004,0.033,0.004c0.021,0.006,0.047,0.006,0.065,0.029c0.036,0.061,0.045-0.027,0.039,0.406
			c-0.007,0.047-0.033,0.094-0.083,0.107c-0.01,0.008-0.024,0.006-0.033,0.008l-0.225,0.004h-0.474h-1.888h-1.885h-0.238H77.943z
			 M82.195,45.843h-1.852h-1.85l0.785-3.029h0.902h1.227L82.195,45.843z M83.357,53.243h-6.025V47.13h3.012h3.014V53.243z"/>
		<path fill="#FFFFFF" d="M39.353,29.487c0.939,0.027,1.78-0.814,1.759-1.756c0.021-0.939-0.816-1.781-1.759-1.756
			c-0.938-0.025-1.782,0.813-1.759,1.756C37.57,28.673,38.41,29.511,39.353,29.487z M39.353,27.261
			c0.251-0.006,0.478,0.221,0.472,0.471c0.006,0.25-0.221,0.48-0.472,0.471c-0.251,0.01-0.479-0.221-0.471-0.471
			C38.873,27.483,39.105,27.255,39.353,27.261z"/>
		<polygon fill="#FFFFFF" points="34.27,80.272 35.557,80.272 35.557,71.011 37.904,71.011 37.904,69.724 34.27,69.724 		"/>
		<polygon fill="#FFFFFF" points="41.017,80.272 42.299,80.272 42.299,71.011 44.648,71.011 44.648,69.724 41.017,69.724 		"/>
		<polygon fill="#FFFFFF" points="48.224,80.272 49.512,80.272 49.512,71.011 51.858,71.011 51.858,69.724 48.224,69.724 		"/>
		<polygon fill="#FFFFFF" points="54.969,80.272 56.256,80.272 56.256,71.011 58.6,71.011 58.6,69.724 54.969,69.724 		"/>
		<polygon fill="#FFFFFF" points="62.273,80.272 63.559,80.272 63.559,71.011 65.905,71.011 65.905,69.724 62.273,69.724 		"/>
		<polygon fill="#FFFFFF" points="69.019,80.272 70.307,80.272 70.307,71.011 72.65,71.011 72.65,69.724 69.019,69.724 		"/>
	</g>
</g>
</svg>
