<?xml version="1.0" encoding="utf-8"?>
<!-- Generator: Adobe Illustrator 16.0.2, SVG Export Plug-In . SVG Version: 6.00 Build 0)  -->
<!DOCTYPE svg PUBLIC "-//W3C//DTD SVG 1.1//EN" "http://www.w3.org/Graphics/SVG/1.1/DTD/svg11.dtd">
<svg version="1.1" xmlns="http://www.w3.org/2000/svg" xmlns:xlink="http://www.w3.org/1999/xlink" x="0px" y="0px" width="155px"
	 height="155px" viewBox="0 0 155 155" enable-background="new 0 0 155 155" xml:space="preserve">
<g id="_x33_" display="none">
</g>
<g id="фоны">
</g>
<g id="Слой_1">
	<g>
		<g>
			<circle fill="#CF0707" cx="77.5" cy="77.5" r="77.5"/>
		</g>
		<g>
			<polyline fill="none" stroke="#FFFFFF" stroke-width="2" stroke-linejoin="round" stroke-miterlimit="10" points="86.866,98.434 
				86.866,54.725 103.516,54.725 103.516,73.457 			"/>
			<polyline fill="none" stroke="#FFFFFF" stroke-width="2" stroke-linejoin="round" stroke-miterlimit="10" points="
				61.889,115.082 61.889,29.748 78.541,29.748 78.541,115.082 			"/>
			<polyline fill="none" stroke="#FFFFFF" stroke-width="2" stroke-linejoin="round" stroke-miterlimit="10" points="
				36.914,115.082 36.914,71.375 53.564,71.375 53.564,115.082 			"/>
			
				<line fill="none" stroke="#FFFFFF" stroke-width="2" stroke-linejoin="round" stroke-miterlimit="10" x1="30.669" y1="119.246" x2="124.331" y2="119.246"/>
			<path fill="none" stroke="#FFFFFF" stroke-width="2" stroke-miterlimit="10" d="M103.516,100.514
				c4.767,0,8.326-3.994,8.326-8.918v-2.977c0-4.924-3.56-8.918-8.326-8.918c-4.766,0-8.325,3.994-8.325,8.918v2.977
				C95.191,96.52,98.75,100.514,103.516,100.514z"/>
			<path fill="none" stroke="#FFFFFF" stroke-width="2" stroke-miterlimit="10" d="M120.167,115.082v-6.328
				c0-5.74-11.122-8.324-16.65-8.324c-5.529,0-16.65,2.584-16.65,8.324v6.328"/>
		</g>
	</g>
</g>
</svg>
