<?xml version="1.0" encoding="utf-8"?>
<!-- Generator: Adobe Illustrator 16.0.2, SVG Export Plug-In . SVG Version: 6.00 Build 0)  -->
<!DOCTYPE svg PUBLIC "-//W3C//DTD SVG 1.1//EN" "http://www.w3.org/Graphics/SVG/1.1/DTD/svg11.dtd">
<svg version="1.1" xmlns="http://www.w3.org/2000/svg" xmlns:xlink="http://www.w3.org/1999/xlink" x="0px" y="0px"
	 width="108.502px" height="108.502px" viewBox="0 0 108.502 108.502" enable-background="new 0 0 108.502 108.502"
	 xml:space="preserve">
<g id="_x33_" display="none">
</g>
<g id="фоны">
</g>
<g id="Слой_1">
	<g>
		<circle fill="#CF0707" cx="54.251" cy="54.251" r="54.251"/>
	</g>
	<g>
		<path fill="#FFFFFF" d="M62.627,63.837c1.266-2.1,1.755-4.658,1.326-7.07l-0.775,0.131l0.775-0.134
			c-0.134-0.59-0.313-0.95-0.494-1.392c-0.178-0.421-0.365-0.83-0.557-1.24c-0.382-0.815-0.775-1.621-1.177-2.423
			c-0.797-1.604-1.618-3.192-2.442-4.781l-2.5-4.749l-3.056-5.68l-3.791,7.074c-1.084,2.045-2.159,4.094-3.213,6.16
			c-1.039,2.076-2.106,4.104-3.004,6.318c-0.055,0.145-0.106,0.289-0.156,0.453c-0.021,0.078-0.049,0.188-0.063,0.277l-0.035,0.227
			c-0.047,0.301-0.076,0.601-0.096,0.909c-0.041,0.62-0.017,1.228,0.058,1.839c0.142,1.213,0.51,2.406,1.075,3.496
			c1.119,2.18,3.037,3.935,5.311,4.854c2.273,0.932,4.871,1.01,7.196,0.235C59.344,67.577,61.36,65.938,62.627,63.837z
			 M56.639,67.223c-2.061,0.693-4.372,0.62-6.378-0.204c-2.017-0.816-3.723-2.375-4.713-4.31c-0.499-0.964-0.827-2.017-0.952-3.097
			c-0.063-0.535-0.088-1.086-0.052-1.621c0.016-0.268,0.046-0.54,0.087-0.813l0.03-0.203c0.011-0.049,0.016-0.081,0.035-0.145
			c0.033-0.114,0.076-0.236,0.126-0.365c0.838-2.071,1.921-4.148,2.952-6.197c1.049-2.056,2.121-4.102,3.199-6.144l2.754-5.149
			l2.017,3.758l2.497,4.737c0.824,1.58,1.64,3.171,2.432,4.763c0.396,0.797,0.786,1.6,1.162,2.398
			c0.188,0.401,0.371,0.803,0.543,1.203c0.161,0.383,0.35,0.844,0.415,1.125c0.38,2.145-0.055,4.408-1.176,6.27
			C60.498,65.091,58.705,66.549,56.639,67.223z"/>
		<path fill="#FFFFFF" d="M74.747,37.662c-2.924-3.618-6.828-6.421-11.174-8.067l5.271,0.025l0.008-1.177l-10.18-0.052l0.835,1.075
			l-0.032,0.147c0.06,0.011,0.12,0.029,0.18,0.041l5.262,6.773l0.931-0.721l-4.331-5.572c4.807,1.443,9.159,4.357,12.314,8.266
			c3.627,4.438,5.641,10.134,5.622,15.862c0.019,5.728-1.995,11.429-5.622,15.862c-3.598,4.455-8.75,7.623-14.355,8.788l0.243,1.151
			c5.87-1.219,11.263-4.538,15.029-9.199c3.79-4.64,5.902-10.611,5.881-16.603C80.649,48.276,78.537,42.3,74.747,37.662z"/>
		<path fill="#FFFFFF" d="M49.027,78.89c-0.058-0.014-0.117-0.029-0.175-0.043l-5.267-6.774l-0.929,0.724l4.329,5.572
			c-4.804-1.443-9.156-4.361-12.312-8.27c-3.624-4.434-5.644-10.135-5.622-15.859c-0.021-5.727,1.998-11.428,5.622-15.861
			c3.595-4.457,8.75-7.625,14.353-8.791l-0.24-1.152c-5.87,1.221-11.266,4.539-15.026,9.201c-3.793,4.639-5.908,10.613-5.887,16.604
			c-0.021,5.988,2.094,11.963,5.887,16.603c2.918,3.618,6.825,6.419,11.168,8.064l-5.268-0.024l-0.006,1.179l10.178,0.05
			l-0.836-1.073L49.027,78.89z"/>
	</g>
</g>
</svg>
