<?xml version="1.0" encoding="utf-8"?>
<!-- Generator: Adobe Illustrator 16.0.2, SVG Export Plug-In . SVG Version: 6.00 Build 0)  -->
<!DOCTYPE svg PUBLIC "-//W3C//DTD SVG 1.1//EN" "http://www.w3.org/Graphics/SVG/1.1/DTD/svg11.dtd">
<svg version="1.1" xmlns="http://www.w3.org/2000/svg" xmlns:xlink="http://www.w3.org/1999/xlink" x="0px" y="0px" width="155px"
	 height="155px" viewBox="0 0 155 155" enable-background="new 0 0 155 155" xml:space="preserve">
<g id="_x33_" display="none">
</g>
<g id="фоны">
</g>
<g id="Слой_1">
	<g>
		<circle fill="#149AED" cx="77.5" cy="77.5" r="77.5"/>
	</g>
	<g>
		<path fill-rule="evenodd" clip-rule="evenodd" fill="#FFFFFF" stroke="#FFFFFF" stroke-miterlimit="10" d="M77.524,126
			C50.803,125.982,28.983,104.164,29,77.48C29.015,50.793,50.875,28.969,77.562,29c26.747,0.029,48.482,21.912,48.438,48.764
			C125.956,104.217,104.043,126.02,77.524,126z M77.502,32.85c-24.547,0.008-44.656,20.102-44.654,44.621
			c0.002,24.533,20.081,44.676,44.542,44.682c24.721,0.004,44.765-20.049,44.761-44.785C122.148,52.943,101.985,32.84,77.502,32.85z
			"/>
		<path fill-rule="evenodd" clip-rule="evenodd" fill="#FFFFFF" stroke="#FFFFFF" stroke-miterlimit="10" d="M50.401,96.082
			c1.357,0.111,2.688,0.188,4.008,0.338c2.363,0.275,4.598,1.074,6.854,1.783c4.232,1.33,8.595,1.887,13.002,2.154
			c4.761,0.289,9.527,0.379,14.293,0.109c2.705-0.154,5.401-0.416,7.998-1.27c0.479-0.156,0.953-0.344,1.401-0.572
			c1.735-0.879,1.838-1.559,1.597-3.244c-0.089-0.619-0.398-1.234-0.717-1.789c-0.672-1.166-0.331-2.336,0.862-2.951
			c0.651-0.334,1.303-0.723,1.844-1.209c1.509-1.357,1.313-3.324-0.386-4.441c-0.18-0.117-0.376-0.213-0.57-0.307
			c-0.698-0.334-1.095-0.881-1.127-1.654c-0.031-0.766,0.309-1.35,0.955-1.768c0.348-0.225,0.701-0.455,0.999-0.736
			c1.819-1.723,1.438-4.105-0.813-5.18c-1.404-0.672-1.646-1.145-1.448-2.682c0.122-0.949,0.181-1.904,0.286-2.857
			c0.102-0.908-0.299-1.566-1.004-2.08c-0.779-0.566-1.673-0.73-2.613-0.73c-2.883,0.004-5.719,0.436-8.555,0.893
			c-1.994,0.322-3.991,0.658-5.999,0.879c-2.739,0.301-4.896-0.969-5.744-3.26c-0.438-1.186-0.416-2.406-0.237-3.637
			c0.256-1.758,1.001-3.342,1.771-4.918c1.009-2.059,1.999-4.129,2.45-6.404c0.289-1.459,0.231-2.875-0.518-4.203
			c-0.478-0.85-1.18-1.455-2.068-1.838c-0.892-0.383-1.204-0.209-1.359,0.76c-0.15,0.945-0.243,1.898-0.411,2.84
			c-0.973,5.443-3.896,9.668-8.164,13.057c-1.371,1.09-2.734,2.189-4.06,3.334c-1.881,1.625-3.15,3.754-4.598,5.732
			c-1.163,1.588-2.302,3.197-3.886,4.414c-0.916,0.705-1.93,1.203-3.076,1.393c-0.313,0.053-0.635,0.053-0.993,0.078
			c0-1.291,0-2.514,0-3.768c1.913-0.348,2.93-1.84,4-3.238c0.911-1.189,1.77-2.42,2.629-3.646c1.44-2.059,3.191-3.811,5.151-5.377
			c1.564-1.252,3.129-2.514,4.576-3.893c2.801-2.666,4.297-6.018,4.82-9.822c0.09-0.662,0.144-1.33,0.279-1.984
			c0.702-3.385,3.639-4.861,6.751-3.35c3.417,1.658,4.946,4.494,4.906,8.229c-0.024,2.189-0.679,4.234-1.538,6.215
			c-0.61,1.408-1.326,2.77-1.91,4.186c-0.409,0.996-0.791,2.027-0.98,3.078c-0.309,1.719,0.305,2.383,2.035,2.182
			c2.257-0.266,4.497-0.668,6.744-1.02c2.928-0.459,5.864-0.873,8.836-0.697c2.147,0.127,3.984,0.973,5.354,2.686
			c0.842,1.051,1.297,2.25,1.248,3.607c-0.028,0.811-0.121,1.619-0.147,2.43c-0.006,0.193,0.089,0.475,0.232,0.572
			c3.635,2.443,3.917,7.113,1.341,10.146c-0.034,0.039-0.057,0.092-0.104,0.168c0.051,0.074,0.102,0.166,0.168,0.246
			c2.43,2.971,2.165,6.82-0.768,9.316c-0.785,0.668-0.938,1.191-0.711,2.174c0.789,3.426-0.495,5.977-3.646,7.537
			c-2.167,1.074-4.506,1.529-6.875,1.834c-5.556,0.715-11.135,0.605-16.713,0.371c-4.262-0.178-8.507-0.545-12.664-1.555
			c-1.822-0.443-3.62-0.99-5.41-1.551c-2.324-0.727-4.684-1.201-7.127-1.184c-0.402,0.002-0.533-0.113-0.521-0.521
			c0.029-0.957,0.01-1.914,0.016-2.871C50.346,96.477,50.374,96.336,50.401,96.082z"/>
	</g>
</g>
</svg>
