<?xml version="1.0" encoding="utf-8"?>
<!-- Generator: Adobe Illustrator 16.0.2, SVG Export Plug-In . SVG Version: 6.00 Build 0)  -->
<!DOCTYPE svg PUBLIC "-//W3C//DTD SVG 1.1//EN" "http://www.w3.org/Graphics/SVG/1.1/DTD/svg11.dtd">
<svg version="1.1" xmlns="http://www.w3.org/2000/svg" xmlns:xlink="http://www.w3.org/1999/xlink" x="0px" y="0px" width="155px"
	 height="155px" viewBox="0 0 155 155" enable-background="new 0 0 155 155" xml:space="preserve">
<g id="_x33_" display="none">
</g>
<g id="фоны">
</g>
<g id="Слой_1">
	<g>
		<g>
			<circle fill="#CF0707" cx="77.5" cy="77.5" r="77.5"/>
		</g>
		<g>
			<path fill="#FFFFFF" d="M115.021,55.147l-0.138,0.004l-0.272,0.002l-1.09,0.018l-1.279,0.047
				c-2.971,0.139-5.925,0.52-8.836,1.078c-3.03,0.59-6.01,1.369-8.939,2.289V39.067l-3.395,0.621l-2.054,0.422v-5.668l-2.693,0.531
				l-1.678,0.359c-1.122,0.248-2.231,0.518-3.339,0.805c-2.216,0.574-4.414,1.23-6.583,1.969c-4.338,1.471-8.571,3.277-12.619,5.443
				c-4.043,2.166-7.913,4.684-11.455,7.633c-0.888,0.74-1.75,1.506-2.585,2.309c-0.417,0.402-0.828,0.814-1.229,1.24
				c-0.234,0.25-0.313,0.324-0.744,0.834c-0.126,0.096-0.115,0.238-0.11,0.385l-0.004,0.402v0.422v6.504
				c-0.458,0.514-0.915,1.027-1.348,1.58l-0.342,0.459c-0.069,0.178-0.022,0.395-0.04,0.588v0.621v1.209v18.652l-2.291,0.459
				c-0.168-1.205-0.277-2.402-0.292-3.598h-1.706c0.05,3.678,0.846,7.17,1.731,10.611c0.91,3.434,2.006,6.801,3.188,10.133
				c1.19,3.332,2.466,6.625,3.814,9.889c0.674,1.633,1.363,3.26,2.077,4.875l0.729,1.629l0.067,0.15
				c0.032,0.039,0.103,0.012,0.154,0.018h0.328h0.648h0.656h2.639h43.083v-7.322l0.986-1.721l1.059-1.955
				c0.687-1.309,1.343-2.633,1.967-3.973c1.247-2.68,2.378-5.414,3.403-8.182c2.04-5.543,3.672-11.223,4.979-16.969
				c1.299-5.752,2.28-11.566,2.942-17.422c0.166-1.465,0.307-2.936,0.423-4.406l0.081-1.105l0.093-1.688l0.027-0.547
				C115.027,55.229,115.056,55.159,115.021,55.147z M47.682,56.774v-0.445l0.396-0.432c0.377-0.398,0.771-0.789,1.17-1.178
				c0.8-0.771,1.636-1.51,2.492-2.225c3.437-2.861,7.215-5.324,11.172-7.443c3.957-2.119,8.104-3.885,12.362-5.332
				c2.128-0.723,4.282-1.363,6.462-1.934c1.09-0.279,2.182-0.549,3.284-0.789l2.293-0.482v4.004
				c-1.123,0.266-2.252,0.525-3.367,0.826c-3.14,0.85-6.239,1.865-9.274,3.035c-6.075,2.34-11.906,5.348-17.281,9.039
				c-2.69,1.85-5.263,3.871-7.674,6.08c-0.696,0.637-1.37,1.293-2.034,1.959V56.774z M45.953,67.735v-1.209v-0.59l0.022-0.027
				c0.474-0.607,0.996-1.209,1.529-1.789c1.063-1.17,2.19-2.289,3.368-3.363c2.34-2.152,4.856-4.123,7.482-5.93
				c5.257-3.613,10.973-6.563,16.929-8.857c2.98-1.146,6.024-2.145,9.107-2.977c1.544-0.42,3.097-0.799,4.658-1.146l2.353-0.482
				l1.176-0.225c0.288-0.053,0.154-0.027,0.183-0.031v18.047c-7.727,2.594-15.111,6.162-22.139,10.205
				c-5.103,2.953-10.036,6.186-14.801,9.648c-2.379,1.734-4.72,3.527-7.004,5.393l-1.684,1.406l-1.18,0.236V67.735z M46.489,103.425
				c-1.17-3.305-2.259-6.633-3.15-10c-0.415-1.621-0.81-3.258-1.109-4.895l3.5-0.699l1.075-0.217l0.538-0.107l0.417-0.082
				c0.2,0.004,0.299-0.195,0.449-0.293l1.688-1.41c2.253-1.844,4.571-3.617,6.927-5.334c4.722-3.426,9.605-6.631,14.65-9.553
				c10.081-5.801,20.859-10.637,32.255-12.865c2.839-0.545,5.717-0.91,8.601-1.049l0.541-0.023
				c-1.207,2.973-2.701,5.906-4.313,8.727c-1.836,3.195-3.865,6.279-6.06,9.242c-4.389,5.93-9.426,11.385-14.979,16.242
				c-10.895,9.576-23.796,16.76-37.518,21.443C48.763,109.536,47.582,106.491,46.489,103.425z M112.716,62.819
				c-0.657,5.789-1.625,11.553-2.911,17.236c-1.291,5.686-2.903,11.297-4.917,16.752c-1.008,2.732-2.119,5.418-3.349,8.053
				c-0.614,1.316-1.255,2.619-1.928,3.904l-1.039,1.912l-1.203,2.092v6.082H55.993h-2.639h-0.676l-0.352-0.781
				c-0.571-1.305-1.123-2.621-1.674-3.941c13.875-4.752,26.945-12.027,37.992-21.734c5.638-4.941,10.761-10.482,15.223-16.512
				c2.229-3.016,4.299-6.154,6.169-9.41c1.007-1.768,1.962-3.559,2.849-5.387C112.828,61.663,112.779,62.237,112.716,62.819z"/>
			<path fill="#FFFFFF" d="M53.228,66.017l-1.185-1.225c-1.137,1.109-2.208,2.229-3.22,3.545l1.38,1.004
				C51.076,68.198,52.149,67.067,53.228,66.017z"/>
			<path fill="#FFFFFF" d="M60.341,60.286l-0.955-1.408c-1.302,0.877-2.569,1.811-3.798,2.795l1.071,1.328
				C57.849,62.048,59.076,61.144,60.341,60.286z"/>
			<path fill="#FFFFFF" d="M68.297,55.743l-0.737-1.537c-1.415,0.68-2.805,1.406-4.17,2.182l0.844,1.482
				C65.562,57.114,66.918,56.403,68.297,55.743z"/>
			<path fill="#FFFFFF" d="M76.823,52.356l-0.524-1.625c-1.492,0.482-2.968,1.014-4.423,1.594l0.628,1.582
				C73.926,53.345,75.367,52.827,76.823,52.356z"/>
			<path fill="#FFFFFF" d="M85.728,50.067l-0.322-1.672c-1.541,0.297-3.069,0.641-4.591,1.027l0.424,1.652
				C82.724,50.698,84.221,50.362,85.728,50.067z"/>
		</g>
	</g>
</g>
</svg>
