<?xml version="1.0" encoding="utf-8"?>
<!-- Generator: Adobe Illustrator 16.0.2, SVG Export Plug-In . SVG Version: 6.00 Build 0)  -->
<!DOCTYPE svg PUBLIC "-//W3C//DTD SVG 1.1//EN" "http://www.w3.org/Graphics/SVG/1.1/DTD/svg11.dtd">
<svg version="1.1" xmlns="http://www.w3.org/2000/svg" xmlns:xlink="http://www.w3.org/1999/xlink" x="0px" y="0px"
	 width="108.502px" height="108.502px" viewBox="0 0 108.502 108.502" enable-background="new 0 0 108.502 108.502"
	 xml:space="preserve">
<g id="_x33_" display="none">
</g>
<g id="фоны">
</g>
<g id="Слой_1">
	<g>
		<circle fill="#CF0707" cx="54.251" cy="54.251" r="54.251"/>
	</g>
	<g>
		<path fill="#FFFFFF" d="M87.177,58.996c-0.188-1.313-0.714-2.574-1.462-3.645c-0.745-1.079-1.681-1.988-2.697-2.76
			c-1.017-0.771-2.114-1.411-3.25-1.955c-0.568-0.269-1.145-0.518-1.734-0.741c-0.293-0.111-0.592-0.219-0.888-0.317l-0.607-0.188
			l-0.338-0.795c-0.161-0.361-0.329-0.724-0.511-1.076c-0.355-0.709-0.748-1.4-1.172-2.069c-0.852-1.343-1.839-2.599-2.933-3.747
			c-2.188-2.302-4.808-4.155-7.609-5.6c-5.627-2.879-11.873-4.213-18.08-4.725c-3.109-0.25-6.258-0.256-9.361-0.057
			c-1.614,0.094-3.292,0.529-4.691,1.49c-1.411,0.947-2.422,2.364-3.083,3.848c-0.664,1.488-1.035,3.049-1.322,4.592
			c-0.296,1.525-0.451,3.115-0.867,4.458c-0.108,0.317-0.254,0.625-0.395,0.76c-0.167,0.134-0.069,0.087-0.703,0.141
			c-0.954,0.104-1.812,0.669-2.377,1.337c-0.577,0.676-0.957,1.438-1.25,2.209c-0.144,0.383-0.26,0.774-0.365,1.169
			c-0.102,0.419-0.177,0.747-0.249,1.253v5.463c0.012,0.918-0.027,1.764,0.03,2.754c0.065,0.962,0.272,1.906,0.586,2.81
			c0.637,1.812,1.692,3.421,2.945,4.808c0.628,0.697,1.307,1.343,2.036,1.936c0.183,0.148,0.371,0.289,0.562,0.433
			c0.183,0.129,0.359,0.294,0.598,0.245l0.418,0.004h0.742c0.146,1.59,0.864,3.13,2,4.257c1.283,1.295,3.092,2.042,4.91,2.036
			c1.818,0.006,3.626-0.741,4.906-2.036c1.136-1.127,1.854-2.667,2-4.257h24.807c0.146,1.59,0.864,3.13,2.003,4.257
			c1.276,1.295,3.088,2.042,4.903,2.036c1.821,0.006,3.629-0.741,4.909-2.036c1.139-1.127,1.854-2.667,2.003-4.261l1.259-0.009
			c0.768-0.032,1.522-0.409,2.039-0.918c1.043-1.044,1.456-2.338,1.773-3.563c0.302-1.244,0.445-2.497,0.526-3.744
			c0.045-0.619,0.063-1.24,0.072-1.862C87.273,60.327,87.282,59.647,87.177,58.996z M40.057,74.376
			c-1.046,1.05-2.515,1.66-3.995,1.654c-1.486,0.006-2.951-0.604-3.995-1.654c-1.052-1.046-1.662-2.512-1.656-3.997
			c-0.006-1.483,0.604-2.948,1.656-3.991c1.043-1.056,2.509-1.666,3.995-1.656c1.483-0.006,2.948,0.601,3.995,1.656
			c1.052,1.043,1.662,2.508,1.653,3.994C41.719,71.864,41.109,73.33,40.057,74.376z M78.68,74.376
			c-1.047,1.05-2.512,1.66-3.998,1.654c-1.483,0.006-2.948-0.604-3.995-1.654c-1.052-1.046-1.656-2.512-1.65-3.997
			c-0.006-1.483,0.598-2.948,1.653-3.991c1.043-1.056,2.512-1.666,3.995-1.656c1.483-0.006,2.948,0.601,3.995,1.656
			c1.052,1.043,1.659,2.508,1.656,3.994C80.339,71.864,79.732,73.33,78.68,74.376z M85.907,62.713
			c-0.078,1.192-0.218,2.383-0.494,3.517c-0.275,1.117-0.693,2.242-1.411,2.936c-0.356,0.341-0.769,0.541-1.229,0.564l-1.178,0.004
			c-0.149-1.594-0.867-3.134-2.003-4.261c-1.28-1.292-3.088-2.042-4.906-2.03c-1.818-0.012-3.63,0.738-4.906,2.03
			c-1.139,1.127-1.857,2.667-2.003,4.263H42.969c-0.146-1.596-0.864-3.136-2-4.263c-1.28-1.292-3.088-2.042-4.906-2.03
			c-1.818-0.012-3.627,0.738-4.906,2.03c-1.139,1.127-1.857,2.67-2.003,4.263h-0.742h-0.257h-0.003
			c-0.17-0.125-0.341-0.256-0.508-0.395c-0.673-0.543-1.307-1.147-1.89-1.791c-1.163-1.291-2.123-2.766-2.682-4.371
			c-0.281-0.804-0.463-1.639-0.52-2.479c-0.048-0.813-0.015-1.775-0.027-2.66v-5.377c0.212-1.318,0.693-2.875,1.552-3.875
			c0.43-0.502,0.962-0.828,1.561-0.899c0.155-0.024,0.242,0.003,0.628-0.057c0.32-0.06,0.619-0.245,0.819-0.452
			c0.406-0.418,0.565-0.852,0.708-1.255c0.496-1.624,0.616-3.137,0.915-4.641c0.278-1.495,0.634-2.963,1.235-4.3
			c0.589-1.333,1.456-2.523,2.628-3.31c1.163-0.795,2.589-1.178,4.048-1.265c3.064-0.197,6.117-0.194,9.176,0.054
			c6.084,0.499,12.178,1.815,17.59,4.587c2.694,1.385,5.19,3.157,7.269,5.34c1.034,1.088,1.97,2.278,2.774,3.549
			c0.407,0.631,0.774,1.289,1.112,1.961c0.173,0.336,0.332,0.676,0.487,1.02l0.221,0.518l0.335,0.828
			c0.735,0.188,0.837,0.236,1.154,0.335c0.281,0.093,0.56,0.194,0.837,0.3c0.556,0.212,1.106,0.445,1.639,0.702
			c1.07,0.511,2.096,1.109,3.025,1.815c1.866,1.396,3.355,3.324,3.663,5.569C86.053,60.265,85.96,61.528,85.907,62.713z"/>
		<path fill="#FFFFFF" d="M73.232,50.006l-0.233-0.565l-0.194-0.434c-0.173-0.385-0.371-0.76-0.565-1.136
			c-0.407-0.745-0.858-1.46-1.357-2.147c-0.999-1.372-2.183-2.595-3.486-3.668c-2.622-2.135-5.702-3.609-8.874-4.61
			c-3.181-1.002-6.479-1.552-9.783-1.797c-1.653-0.116-3.31-0.161-4.969-0.11l-0.625,0.026l-0.487,0.026l-0.607,0.045l-0.152,0.013
			c-0.042,0.009-0.123-0.013-0.102,0.06v0.305l-0.003,0.61l-0.003,0.727v2.458v4.906l0.003,2.479
			c0.018,0.921,0.365,1.958,1.109,2.652c0.359,0.346,0.787,0.609,1.229,0.789c0.463,0.176,0.858,0.302,1.435,0.326h2.455h4.907
			l20.501-0.01c0.329,0.087,0.078-0.217,0.039-0.383L73.232,50.006z M52.928,49.668h-4.907h-2.455
			c-0.242-0.007-0.652-0.104-0.945-0.23c-0.32-0.122-0.601-0.302-0.825-0.522c-0.46-0.434-0.691-1.064-0.708-1.771l-0.009-2.431
			v-4.906V37.35v-0.493l0.729-0.027c1.609-0.051,3.226-0.009,4.838,0.105c3.22,0.235,6.422,0.777,9.487,1.739
			c3.056,0.966,5.983,2.377,8.447,4.384c1.226,1.008,2.332,2.149,3.259,3.426c0.466,0.641,0.885,1.31,1.265,2
			c0.186,0.35,0.368,0.7,0.529,1.063l0.054,0.122H52.928z"/>
		<path fill="#FFFFFF" d="M53.337,55.146c-0.293-0.186-0.627-0.297-0.972-0.314c-0.311-0.009-0.49-0.002-0.744-0.006h-2.82h-2.822
			c-0.251,0.004-0.431-0.003-0.745,0.006c-0.341,0.018-0.679,0.129-0.969,0.314c-0.586,0.358-0.959,1.037-0.954,1.729
			c-0.006,0.684,0.368,1.365,0.954,1.728c0.29,0.186,0.628,0.293,0.969,0.308c0.314,0.016,0.494,0.006,0.745,0.01h2.822h2.82
			c0.254-0.004,0.434,0.006,0.744-0.01c0.344-0.015,0.679-0.125,0.972-0.308c0.586-0.362,0.957-1.04,0.954-1.728
			C54.294,56.183,53.924,55.504,53.337,55.146z M52.647,57.511c-0.108,0.065-0.227,0.11-0.356,0.113l-0.669,0.003h-2.82h-2.822
			l-0.667-0.003c-0.128-0.006-0.251-0.048-0.358-0.113c-0.218-0.138-0.35-0.383-0.353-0.637c0.003-0.258,0.135-0.503,0.353-0.637
			c0.107-0.069,0.23-0.111,0.358-0.117l0.667-0.003h2.822h2.82l0.669,0.003c0.129,0.006,0.248,0.048,0.356,0.117
			c0.218,0.134,0.356,0.379,0.356,0.637C53.003,57.128,52.865,57.373,52.647,57.511z"/>
	</g>
</g>
</svg>
