<?xml version="1.0" encoding="utf-8"?>
<!-- Generator: Adobe Illustrator 16.0.2, SVG Export Plug-In . SVG Version: 6.00 Build 0)  -->
<!DOCTYPE svg PUBLIC "-//W3C//DTD SVG 1.1//EN" "http://www.w3.org/Graphics/SVG/1.1/DTD/svg11.dtd">
<svg version="1.1" xmlns="http://www.w3.org/2000/svg" xmlns:xlink="http://www.w3.org/1999/xlink" x="0px" y="0px" width="155px"
	 height="155px" viewBox="0 0 155 155" enable-background="new 0 0 155 155" xml:space="preserve">
<g id="_x33_" display="none">
</g>
<g id="фоны">
</g>
<g id="Слой_1">
	<g>
		<circle fill="#149AED" cx="77.5" cy="77.5" r="77.5"/>
	</g>
	<g>
		<path fill-rule="evenodd" clip-rule="evenodd" fill="#FFFFFF" stroke="#FFFFFF" stroke-miterlimit="10" d="M30.5,78.948
			c0.064-0.797,0.122-1.59,0.202-2.383c0.114-1.111,0.357-1.439,1.47-1.519c1.628-0.117,3.265-0.146,4.898-0.151
			c4.248-0.016,8.496-0.002,12.744,0.018c0.796,0.002,1.597,0.058,2.394,0.154c1.132,0.133,1.622,0.603,1.684,1.753
			c0.088,1.592,0.078,3.197,0.111,4.794c0.007,0.349,0.001,0.69,0.001,1.091c1.083,0.074,2.12,0.146,3.157,0.212
			c6.317,0.412,12.187,2.225,17.565,5.586c1.003,0.628,2.017,1.237,3.017,1.866c1,0.628,2.087,0.926,3.271,0.916
			c2.346-0.02,4.697-0.051,7.046,0.014c2.396,0.066,4.744,0.43,6.933,1.506c2.146,1.042,3.605,2.641,4.011,5.06
			c0.086,0.52,0.385,0.653,0.807,0.491c0.692-0.269,1.435-0.493,2.036-0.916c2.146-1.509,4.246-3.085,6.361-4.639
			c1.461-1.076,2.848-2.251,4.384-3.2c4.796-2.978,10.958-0.077,11.804,5.502c0.024,0.151,0.066,0.298,0.104,0.452
			c0,0.694,0,1.39,0,2.088c-0.246,1.312-0.813,2.454-1.684,3.473c-1.7,1.997-3.619,3.758-5.779,5.253
			c-7.728,5.351-16.105,9.357-25.104,12.057c-2.216,0.664-4.468,1.239-6.806,1.234c-3.283-0.006-6.474-0.575-9.573-1.652
			c-4.358-1.515-8.531-3.48-12.728-5.382c-2.536-1.151-5.091-2.259-7.652-3.341c-1.063-0.448-1.126-0.353-1.171,0.819
			c-0.033,0.851-0.064,1.71-0.209,2.538c-0.139,0.83-0.743,1.278-1.568,1.379c-0.466,0.061-0.932,0.1-1.4,0.098
			c-6.304-0.01-12.602-0.019-18.902-0.052c-0.204-0.001-0.44-0.155-0.612-0.298c-0.291-0.231-0.542-0.512-0.811-0.772
			C30.5,101.645,30.5,90.296,30.5,78.948z M54.034,104.924c0.642,0.169,1.29,0.267,1.875,0.506c2.814,1.157,5.63,2.316,8.413,3.548
			c4.002,1.78,7.917,3.762,12.099,5.129c2.566,0.844,5.154,1.59,7.886,1.654c3.021,0.076,5.911-0.61,8.74-1.57
			c7.549-2.575,14.6-6.186,21.211-10.639c1.905-1.285,3.727-2.684,5.296-4.391c1.084-1.181,1.322-2.497,0.854-4.014
			c-0.776-2.491-3.581-3.605-5.798-2.226c-0.928,0.58-1.788,1.272-2.657,1.933c-2.317,1.755-4.586,3.571-6.946,5.271
			c-2.181,1.573-4.612,2.347-7.371,2.319c-8.861-0.097-17.717-0.082-26.579-0.121c-0.706-0.004-1.422-0.089-2.126-0.213
			c-0.932-0.163-1.506-1.338-1.194-2.23c0.298-0.843,0.839-1.287,1.733-1.314c0.313-0.011,0.626-0.076,0.933-0.081
			c2.682-0.043,5.363-0.083,8.044-0.105c5.134-0.044,10.268-0.064,15.402-0.103c0.417-0.004,0.843-0.045,1.336-0.069
			c-0.454-0.973-1.162-1.51-1.977-1.928c-1.218-0.628-2.535-0.899-3.881-0.936c-3.44-0.097-6.891-0.136-10.331-0.211
			c-0.304-0.007-0.636-0.056-0.897-0.2c-1.544-0.838-3.118-1.632-4.588-2.582c-5.222-3.384-10.917-5.242-17.122-5.558
			c-0.778-0.04-1.549-0.097-2.354-0.144C54.034,92.786,54.034,98.853,54.034,104.924z M49.928,110.09c0-10.397,0-20.763,0-31.138
			c-5.192,0-10.353,0-15.53,0c0,10.389,0,20.75,0,31.138C39.575,110.09,44.721,110.09,49.928,110.09z"/>
		<path fill-rule="evenodd" clip-rule="evenodd" fill="#FFFFFF" stroke="#FFFFFF" stroke-miterlimit="10" d="M51.076,29.335
			c1.038,0.1,2.074,0.17,3.109,0.304c7.103,0.892,13.698,3.091,19.392,7.577c5.827,4.6,9.187,10.611,10.176,17.957
			c0.277,2.061,0.432,4.123,0.273,6.198c-0.036,0.444,0.043,0.964,0.255,1.351c1.874,3.432,3.089,7.106,4.185,10.833
			c0.098,0.333,0.186,0.66,0.299,1.067c0.184-0.174,0.313-0.28,0.428-0.405c2.326-2.501,4.82-4.821,7.53-6.914
			c0.309-0.238,0.408-0.507,0.422-0.881c0.07-2.231,0.208-4.448,0.966-6.578c1.728-4.861,5.043-8.249,9.635-10.462
			c3.047-1.467,6.3-2.179,9.645-2.496c0.333-0.033,0.659-0.07,0.993-0.086c1.05-0.052,1.908,0.597,1.988,1.645
			c0.565,7.263-1.535,13.471-7.469,18.009c-2.341,1.788-5.075,2.883-8.037,3.268c-1.445,0.188-2.905,0.274-4.366,0.358
			c-0.615,0.038-1.154,0.18-1.651,0.547c-2.657,1.975-5.029,4.244-7.106,6.809c-1.038,1.278-1.823,2.705-1.958,4.421
			c-0.06,0.799-0.809,1.413-1.691,1.511c-0.847,0.093-1.626-0.31-1.833-1.122c-0.271-1.04-0.412-2.112-0.604-3.175
			c-0.882-4.87-2.339-9.556-4.491-14.019c-0.129-0.278-0.293-0.313-0.568-0.299c-9.875,0.479-18.51-2.252-25.155-9.925
			c-3.853-4.442-5.979-9.705-6.892-15.482c-0.425-2.715-0.505-5.437-0.211-8.169c0.096-0.903,0.557-1.505,1.383-1.841
			C50.173,29.335,50.624,29.335,51.076,29.335z M51.971,33.325c0.133,4.05,0.61,7.896,2.058,11.55
			c2.711,6.852,7.413,11.767,14.379,14.377c3.029,1.137,6.203,1.541,9.416,1.624c0.74,0.021,1.48,0.003,2.271,0.003
			c0-0.643,0.009-1.3-0.002-1.954c-0.06-3.757-0.805-7.364-2.467-10.744c-2.366-4.802-6.114-8.229-10.774-10.721
			c-3.815-2.039-7.918-3.213-12.182-3.826C53.797,33.509,52.923,33.432,51.971,33.325z M100.992,66.075
			c4.631,0.031,8.664-1.252,11.786-4.801c2.605-2.969,3.685-6.481,3.855-10.446c-0.391,0.057-0.647,0.075-0.896,0.133
			c-1.383,0.348-2.785,0.624-4.139,1.063c-3.508,1.138-6.431,3.104-8.432,6.292C101.698,60.67,101.126,63.267,100.992,66.075z"/>
	</g>
</g>
</svg>
