<?xml version="1.0" encoding="utf-8"?>
<!-- Generator: Adobe Illustrator 16.0.2, SVG Export Plug-In . SVG Version: 6.00 Build 0)  -->
<!DOCTYPE svg PUBLIC "-//W3C//DTD SVG 1.1//EN" "http://www.w3.org/Graphics/SVG/1.1/DTD/svg11.dtd">
<svg version="1.1" xmlns="http://www.w3.org/2000/svg" xmlns:xlink="http://www.w3.org/1999/xlink" x="0px" y="0px"
	 width="108.502px" height="108.502px" viewBox="0 0 108.502 108.502" enable-background="new 0 0 108.502 108.502"
	 xml:space="preserve">
<g id="_x33_" display="none">
</g>
<g id="фоны">
</g>
<g id="Слой_1">
	<g>
		<circle fill="#CF0707" cx="54.251" cy="54.251" r="54.251"/>
	</g>
	<g>
		<path fill="#FFFFFF" d="M55.736,50.874l9.06-12.02H51.557h-3.283L38.152,55.8h13.982l-11.601,17.1l34.238-22.025H55.736z
			 M54.491,54.552H40.35l8.629-14.451h2.578h10.736l-9.06,12.02h17.295l-25.53,16.426L54.491,54.552z"/>
		<path fill="#FFFFFF" d="M79.892,43.63c-1.391-3.355-3.451-6.432-6.021-9.001c-2.566-2.567-5.643-4.628-8.999-6.021
			c-3.355-1.394-6.989-2.107-10.623-2.104c-3.631-0.003-7.262,0.711-10.617,2.107c-3.359,1.391-6.436,3.451-9.002,6.019
			c-2.567,2.569-4.628,5.646-6.019,9.001c-1.394,3.354-2.11,6.99-2.107,10.618c-0.003,3.634,0.714,7.267,2.107,10.624
			c1.391,3.355,3.451,6.432,6.019,8.998c2.566,2.57,5.643,4.631,9.002,6.019c3.355,1.399,6.986,2.11,10.617,2.11
			c3.634,0,7.268-0.711,10.623-2.11c3.356-1.388,6.433-3.448,8.999-6.019c2.57-2.566,4.631-5.643,6.021-8.998
			c1.394-3.357,2.11-6.99,2.107-10.624C82.002,50.62,81.285,46.983,79.892,43.63z M72.988,72.991
			c-4.891,4.935-11.785,7.797-18.74,7.759c-6.949,0.038-13.844-2.824-18.737-7.759c-4.935-4.896-7.8-11.791-7.762-18.743
			c-0.038-6.949,2.827-13.844,7.762-18.737c4.894-4.936,11.788-7.799,18.737-7.762c6.955-0.037,13.85,2.826,18.74,7.762
			c4.938,4.894,7.797,11.788,7.765,18.737C80.785,61.2,77.926,68.095,72.988,72.991z"/>
	</g>
</g>
</svg>
