<?xml version="1.0" encoding="utf-8"?>
<!-- Generator: Adobe Illustrator 16.0.2, SVG Export Plug-In . SVG Version: 6.00 Build 0)  -->
<!DOCTYPE svg PUBLIC "-//W3C//DTD SVG 1.1//EN" "http://www.w3.org/Graphics/SVG/1.1/DTD/svg11.dtd">
<svg version="1.1" xmlns="http://www.w3.org/2000/svg" xmlns:xlink="http://www.w3.org/1999/xlink" x="0px" y="0px" width="155px"
	 height="155px" viewBox="0 0 155 155" enable-background="new 0 0 155 155" xml:space="preserve">
<g id="_x33_" display="none">
</g>
<g id="фоны">
</g>
<g id="Слой_1">
	<g>
		<g>
			<circle fill="#CF0707" cx="77.5" cy="77.5" r="77.5"/>
		</g>
		<g>
			<path fill="none" stroke="#FFFFFF" stroke-width="2" stroke-miterlimit="10" d="M50.442,94.149c-4.919,0-8.325-3.992-8.325-8.916
				v-2.977c0-4.926,3.406-8.918,8.325-8.918c4.918,0,8.325,3.992,8.325,8.918v2.977C58.768,90.157,55.36,94.149,50.442,94.149z"/>
			<path fill="none" stroke="#FFFFFF" stroke-width="2" stroke-miterlimit="10" d="M31.711,125.37c0,0,1.365-11.576,2.08-16.648
				c0.716-5.072,3.746-8.328,8.326-8.328h4.162l14.531,16.652h12.487c0,0,0.932,8.324-6.244,8.324c-4.185,0-12.448,0-12.448,0
				l-10.408-12.488"/>
			<polyline fill="none" stroke="#FFFFFF" stroke-width="2" stroke-linejoin="round" stroke-miterlimit="10" points="62.93,110.8 
				71.256,98.313 108.72,98.313 96.231,119.128 77.5,119.128 			"/>
			
				<line fill="none" stroke="#FFFFFF" stroke-width="2" stroke-linejoin="round" stroke-miterlimit="10" x1="46.279" y1="125.37" x2="112.882" y2="125.37"/>
			<path fill="none" stroke="#FFFFFF" stroke-width="2" stroke-linejoin="round" stroke-miterlimit="10" d="M71.256,29.63h45.789
				c3.449,0,6.244,2.797,6.244,6.244v33.301c0,4.598-3.727,8.326-8.325,8.326H87.906l-8.742,11.654
				c-1.199,1.602-3.746,0.752-3.746-1.25V77.501h-4.162c-3.449,0-6.244-2.799-6.244-6.244V35.874
				C65.012,32.427,67.807,29.63,71.256,29.63z"/>
			<path fill="none" stroke="#FFFFFF" stroke-width="2" stroke-miterlimit="10" d="M104.557,69.175v-6.244
				c0-4.164-5.729-6.244-10.406-6.244c-4.679,0-10.407,2.08-10.407,6.244v6.244"/>
			<path fill="none" stroke="#FFFFFF" stroke-width="2" stroke-miterlimit="10" d="M94.15,56.687c3.754,0,6.244-2.795,6.244-6.244
				V48.36c0-3.445-2.49-6.244-6.244-6.244s-6.244,2.799-6.244,6.244v2.082C87.906,53.892,90.396,56.687,94.15,56.687z"/>
		</g>
	</g>
</g>
</svg>
