<?xml version="1.0" encoding="utf-8"?>
<!-- Generator: Adobe Illustrator 16.0.2, SVG Export Plug-In . SVG Version: 6.00 Build 0)  -->
<!DOCTYPE svg PUBLIC "-//W3C//DTD SVG 1.1//EN" "http://www.w3.org/Graphics/SVG/1.1/DTD/svg11.dtd">
<svg version="1.1" xmlns="http://www.w3.org/2000/svg" xmlns:xlink="http://www.w3.org/1999/xlink" x="0px" y="0px"
	 width="108.502px" height="108.502px" viewBox="0 0 108.502 108.502" enable-background="new 0 0 108.502 108.502"
	 xml:space="preserve">
<g id="_x33_" display="none">
</g>
<g id="фоны">
</g>
<g id="Слой_1">
	<g>
		<circle fill="#CF0707" cx="54.251" cy="54.251" r="54.251"/>
	</g>
	<g>
		<path fill="#FFFFFF" d="M81.655,47.531c-0.287-0.906-1.019-1.653-1.925-1.945c-0.901-0.301-1.941-0.146-2.704,0.42
			c-0.776,0.549-1.251,1.488-1.248,2.436v1.074H60.576V38.542h-5.742v-6.233h7.326h3.955h0.987h0.493
			c0.203,0,0.449-0.027,0.66-0.093c0.877-0.26,1.521-1.132,1.508-2.046c0.014-0.916-0.631-1.784-1.508-2.044
			c-0.211-0.065-0.457-0.093-0.66-0.095h-0.493h-0.987H62.16h-7.91h-7.907h-3.954H41.4h-0.493c-0.206,0.002-0.446,0.029-0.66,0.095
			c-0.88,0.26-1.524,1.128-1.511,2.044c-0.014,0.918,0.631,1.786,1.511,2.046c0.214,0.065,0.454,0.093,0.66,0.093H41.4h0.988h3.954
			h7.325v6.233h-5.741v11.572H32.722v-0.127v-1.146c0.005-0.341,0.014-0.863-0.141-1.311c-0.284-0.906-1.019-1.653-1.925-1.945
			c-0.898-0.301-1.941-0.146-2.704,0.42c-0.774,0.549-1.248,1.488-1.245,2.436V66.76v9.16v1.145
			c-0.006,0.342-0.017,0.863,0.141,1.311c0.287,0.906,1.018,1.651,1.924,1.946c0.902,0.3,1.939,0.145,2.705-0.423
			c0.773-0.547,1.25-1.485,1.245-2.433v-1.769h43.057v0.223v1.145c-0.003,0.342-0.011,0.863,0.144,1.311
			c0.284,0.906,1.018,1.651,1.925,1.946c0.898,0.298,1.938,0.145,2.701-0.423c0.776-0.547,1.253-1.485,1.248-2.433V59.145v-9.157
			v-1.146C81.801,48.501,81.81,47.979,81.655,47.531z M31.555,48.842v1.146v9.157v18.321c0,0.579-0.287,1.149-0.764,1.488
			c-0.465,0.347-1.104,0.438-1.653,0.257c-0.552-0.178-1.005-0.636-1.178-1.19c-0.092-0.282-0.089-0.536-0.087-0.956V75.92v-9.16
			V48.441c0.003-0.579,0.287-1.15,0.767-1.488c0.463-0.348,1.104-0.439,1.651-0.258c0.552,0.179,1.004,0.637,1.175,1.188
			C31.561,48.166,31.555,48.422,31.555,48.842z M46.343,31.141h-3.954H41.4h-0.493c-0.13-0.002-0.214-0.013-0.316-0.045
			c-0.397-0.117-0.693-0.51-0.688-0.926c-0.006-0.414,0.29-0.81,0.688-0.926c0.103-0.03,0.187-0.041,0.316-0.043H41.4h0.988h3.954
			h7.907h7.91h3.955h0.987h0.493c0.127,0.002,0.213,0.013,0.318,0.043c0.396,0.116,0.688,0.512,0.686,0.926
			c0.002,0.416-0.289,0.809-0.686,0.928c-0.105,0.03-0.191,0.041-0.318,0.043h-0.493h-0.987H62.16h-7.91H46.343z M49.094,39.709
			h10.315v10.393v7.838H49.094V39.709z M75.778,66.76v7.769H32.722V59.145v-7.861h15.205v7.824h12.649v-8.422h15.202V66.76z
			 M80.629,48.842v1.146v9.157v18.321c-0.002,0.579-0.287,1.149-0.766,1.488c-0.463,0.347-1.102,0.438-1.651,0.257
			c-0.552-0.178-1.005-0.636-1.178-1.188c-0.092-0.285-0.089-0.539-0.089-0.959V75.92v-9.16V48.441
			c0.002-0.579,0.289-1.15,0.766-1.488c0.466-0.348,1.104-0.439,1.651-0.258c0.556,0.179,1.005,0.637,1.181,1.188
			C80.635,48.166,80.629,48.422,80.629,48.842z"/>
		<rect x="49.968" y="41.422" fill="#FFFFFF" width="1.167" height="11.229"/>
		<rect x="49.968" y="53.674" fill="#FFFFFF" width="1.167" height="2.042"/>
	</g>
</g>
</svg>
