<?xml version="1.0" encoding="utf-8"?>
<!-- Generator: Adobe Illustrator 16.0.2, SVG Export Plug-In . SVG Version: 6.00 Build 0)  -->
<!DOCTYPE svg PUBLIC "-//W3C//DTD SVG 1.1//EN" "http://www.w3.org/Graphics/SVG/1.1/DTD/svg11.dtd">
<svg version="1.1" xmlns="http://www.w3.org/2000/svg" xmlns:xlink="http://www.w3.org/1999/xlink" x="0px" y="0px" width="258.6px"
	 height="173.167px" viewBox="0 0 258.6 173.167" enable-background="new 0 0 258.6 173.167" xml:space="preserve">
<g id="_x33_" display="none">
</g>
<g id="фоны">
</g>
<g id="Слой_1">
	<g>
		<g>
			<path fill="#002C7A" d="M12.023,153.121H9.584L0,172.676h3.406l2.477-5.042h9.85l2.539,5.042h3.438l-9.572-19.33L12.023,153.121z
				 M14.291,164.632H7.347l3.46-6.982L14.291,164.632z"/>
			<polygon fill="#002C7A" points="26.645,153.121 23.504,153.121 23.504,172.676 38.883,172.676 38.883,169.707 26.645,169.707 			
				"/>
			<polygon fill="#002C7A" points="44.019,156.089 56.424,156.089 56.424,153.121 40.882,153.121 40.882,172.676 44.019,172.676 
				44.019,163.745 51.521,163.745 51.521,160.777 44.019,160.777 			"/>
			<path fill="#002C7A" d="M64.027,153.121H61.59l-9.58,19.555h3.4l2.479-5.042h9.85l2.543,5.042h3.432l-9.572-19.33L64.027,153.121
				z M66.295,164.632H59.36l3.454-6.982L66.295,164.632z"/>
			<rect x="87.123" y="153.021" fill="#002C7A" width="3.168" height="19.655"/>
			<polygon fill="#002C7A" points="108.491,166.443 97.049,153.261 96.93,153.121 95.115,153.121 95.115,172.676 98.255,172.676 
				98.255,159.348 109.742,172.536 109.865,172.676 111.644,172.676 111.644,153.121 108.491,153.121 			"/>
			<path fill="#002C7A" d="M124.852,153.121h-8.437v19.555h8.437c3.1,0,5.617-0.893,7.465-2.66c1.845-1.774,2.787-4.151,2.787-7.069
				c0-2.896-0.957-5.284-2.835-7.096C130.398,154.04,127.902,153.121,124.852,153.121z M124.852,169.707h-5.295v-13.617h5.295
				c2.141,0,3.869,0.631,5.134,1.873c1.255,1.237,1.897,2.904,1.897,4.953c0,2.082-0.627,3.752-1.866,4.963
				C128.778,169.092,127.035,169.707,124.852,169.707z"/>
			<path fill="#002C7A" d="M150.989,165.663c0,1.818-0.321,3.035-0.95,3.615c-0.646,0.588-2,0.885-4.021,0.885
				c-2.023,0-3.379-0.299-4.033-0.885c-0.632-0.581-0.955-1.797-0.955-3.615v-12.542h-3.141v13.172c0,2.423,0.654,4.2,1.945,5.277
				c1.27,1.059,3.355,1.596,6.184,1.596c2.836,0,4.92-0.537,6.188-1.596c1.286-1.08,1.942-2.856,1.942-5.277v-13.172h-3.159V165.663
				z"/>
			<path fill="#002C7A" d="M206.864,164.314c1.177-0.316,2.154-0.926,2.909-1.825c0.877-1.04,1.314-2.302,1.314-3.751
				c0-1.739-0.57-3.129-1.693-4.129c-1.119-0.989-2.658-1.487-4.582-1.487h-10.735h-0.415h-19.01v2.898l-0.234-0.17
				c-1.397-1.028-2.893-1.814-4.448-2.341c-1.558-0.528-3.159-0.794-4.751-0.794c-2.229,0-4.079,0.517-5.488,1.537
				c-1.446,1.045-2.186,2.409-2.186,4.047c0,0.909,0.258,1.736,0.751,2.458c0.487,0.721,1.208,1.313,2.154,1.765
				c1.173,0.536,3.282,0.901,6.439,1.123c0.616,0.033,1.083,0.064,1.416,0.102c1.282,0.106,2.299,0.436,3.003,0.978
				c0.673,0.517,1.005,1.152,1.005,1.944c0,1.021-0.47,1.835-1.442,2.495c-1.01,0.687-2.348,1.034-3.99,1.034
				c-1.345,0-2.727-0.264-4.111-0.789c-1.385-0.527-2.748-1.299-4.029-2.299l-0.343-0.268l-1.812,2.696l0.301,0.232
				c1.472,1.144,3.055,2.006,4.691,2.562c1.642,0.556,3.437,0.836,5.334,0.836c2.547,0,4.644-0.598,6.224-1.779
				c1.623-1.203,2.451-2.77,2.451-4.654c0-1.582-0.603-2.932-1.798-4.017c-1.17-1.061-2.758-1.714-4.736-1.937
				c-0.658-0.083-1.586-0.158-2.76-0.224c-3.069-0.19-4.289-0.663-4.764-1.021c-0.262-0.199-0.449-0.412-0.574-0.635
				c-0.11-0.212-0.168-0.442-0.168-0.706c0-0.677,0.38-1.236,1.173-1.71c0.853-0.511,1.959-0.768,3.289-0.768
				c1.292,0,2.565,0.231,3.791,0.681c1.216,0.449,2.401,1.129,3.521,2.034l0.34,0.27l1.836-2.611h7.789v16.586h3.157v-16.586h7.979
				v16.586h3.141v-8.2h6.622l4.687,8.2h3.513L206.864,164.314z M196.803,161.47v-5.38h7.979c0.981,0,1.749,0.241,2.282,0.721
				c0.522,0.472,0.772,1.127,0.772,2c0,0.888-0.25,1.535-0.77,1.98c-0.525,0.453-1.335,0.68-2.405,0.68H196.803z"/>
			<rect x="214.557" y="153.021" fill="#002C7A" width="3.176" height="19.655"/>
			<polygon fill="#002C7A" points="225.688,163.745 233.19,163.745 233.19,160.777 225.688,160.777 225.688,156.089 238.1,156.089 
				238.1,153.121 222.553,153.121 222.553,172.676 238.864,172.676 238.864,169.707 225.688,169.707 			"/>
			<path fill="#002C7A" d="M256.803,162.718c-1.164-1.061-2.753-1.714-4.735-1.937c-0.65-0.081-1.575-0.154-2.757-0.224
				c-3.068-0.189-4.291-0.663-4.764-1.02c-0.26-0.201-0.451-0.417-0.572-0.637c-0.113-0.212-0.169-0.442-0.169-0.706
				c0-0.677,0.38-1.236,1.171-1.71c0.853-0.511,1.959-0.768,3.29-0.768c1.293,0,2.565,0.231,3.792,0.681
				c1.221,0.449,2.402,1.129,3.524,2.03l0.337,0.273l1.835-2.617l-0.313-0.234c-1.395-1.021-2.895-1.81-4.455-2.341
				c-1.557-0.528-3.156-0.794-4.76-0.794c-2.219,0-4.068,0.517-5.479,1.537c-1.446,1.045-2.184,2.409-2.184,4.047
				c0,0.905,0.247,1.733,0.743,2.462c0.494,0.718,1.221,1.312,2.163,1.76c1.171,0.536,3.28,0.901,6.438,1.123
				c0.615,0.033,1.084,0.064,1.416,0.102c1.283,0.106,2.3,0.436,3.003,0.978c0.673,0.517,1.003,1.152,1.003,1.944
				c0,1.021-0.467,1.835-1.44,2.495c-1.009,0.687-2.358,1.034-3.993,1.034c-1.342,0-2.727-0.264-4.11-0.789
				c-1.385-0.525-2.738-1.299-4.021-2.299l-0.35-0.268l-1.81,2.696l0.296,0.232c1.483,1.146,3.059,2.006,4.694,2.562
				c1.64,0.556,3.437,0.836,5.335,0.836c2.547,0,4.643-0.598,6.223-1.779c1.627-1.208,2.445-2.773,2.445-4.654
				C258.6,165.148,257.997,163.799,256.803,162.718z"/>
		</g>
		<g>
			<polygon fill="#002C7A" points="84.643,125.503 70.809,125.503 114.054,50.604 130.693,79.431 141.844,79.431 114.054,31.292 
				54.08,135.158 79.249,135.158 			"/>
			<polygon fill="#CF0707" points="180.881,103.864 187.798,115.844 101.313,115.844 117.961,87.017 112.383,77.364 84.593,125.5 
				204.525,125.5 191.941,103.707 			"/>
			<polygon fill="#002C7A" points="114.002,31.294 120.914,19.313 164.161,94.21 130.872,94.21 125.291,103.867 180.881,103.868 
				120.918,0 108.33,21.793 			"/>
		</g>
	</g>
</g>
</svg>
